%TF.GenerationSoftware,KiCad,Pcbnew,8.0.6*%
%TF.CreationDate,2024-12-04T19:14:48+00:00*%
%TF.ProjectId,feedbackPedal,66656564-6261-4636-9b50-6564616c2e6b,rev?*%
%TF.SameCoordinates,Original*%
%TF.FileFunction,Legend,Bot*%
%TF.FilePolarity,Positive*%
%FSLAX46Y46*%
G04 Gerber Fmt 4.6, Leading zero omitted, Abs format (unit mm)*
G04 Created by KiCad (PCBNEW 8.0.6) date 2024-12-04 19:14:48*
%MOMM*%
%LPD*%
G01*
G04 APERTURE LIST*
G04 Aperture macros list*
%AMRoundRect*
0 Rectangle with rounded corners*
0 $1 Rounding radius*
0 $2 $3 $4 $5 $6 $7 $8 $9 X,Y pos of 4 corners*
0 Add a 4 corners polygon primitive as box body*
4,1,4,$2,$3,$4,$5,$6,$7,$8,$9,$2,$3,0*
0 Add four circle primitives for the rounded corners*
1,1,$1+$1,$2,$3*
1,1,$1+$1,$4,$5*
1,1,$1+$1,$6,$7*
1,1,$1+$1,$8,$9*
0 Add four rect primitives between the rounded corners*
20,1,$1+$1,$2,$3,$4,$5,0*
20,1,$1+$1,$4,$5,$6,$7,0*
20,1,$1+$1,$6,$7,$8,$9,0*
20,1,$1+$1,$8,$9,$2,$3,0*%
%AMFreePoly0*
4,1,9,3.862500,-0.866500,0.737500,-0.866500,0.737500,-0.450000,-0.737500,-0.450000,-0.737500,0.450000,0.737500,0.450000,0.737500,0.866500,3.862500,0.866500,3.862500,-0.866500,3.862500,-0.866500,$1*%
G04 Aperture macros list end*
%ADD10C,0.150000*%
%ADD11C,0.120000*%
%ADD12C,0.152400*%
%ADD13C,0.100000*%
%ADD14R,1.700000X1.700000*%
%ADD15O,1.700000X1.700000*%
%ADD16C,1.346200*%
%ADD17C,1.440000*%
%ADD18C,2.057400*%
%ADD19R,1.600000X1.600000*%
%ADD20O,1.600000X1.600000*%
%ADD21RoundRect,0.200000X-0.200000X-0.275000X0.200000X-0.275000X0.200000X0.275000X-0.200000X0.275000X0*%
%ADD22RoundRect,0.225000X-0.250000X0.225000X-0.250000X-0.225000X0.250000X-0.225000X0.250000X0.225000X0*%
%ADD23RoundRect,0.225000X0.225000X0.375000X-0.225000X0.375000X-0.225000X-0.375000X0.225000X-0.375000X0*%
%ADD24RoundRect,0.200000X0.200000X0.275000X-0.200000X0.275000X-0.200000X-0.275000X0.200000X-0.275000X0*%
%ADD25RoundRect,0.250000X1.250000X0.550000X-1.250000X0.550000X-1.250000X-0.550000X1.250000X-0.550000X0*%
%ADD26RoundRect,0.225000X-0.225000X-0.250000X0.225000X-0.250000X0.225000X0.250000X-0.225000X0.250000X0*%
%ADD27C,1.400000*%
%ADD28O,1.400000X1.400000*%
%ADD29RoundRect,0.225000X-0.425000X-0.225000X0.425000X-0.225000X0.425000X0.225000X-0.425000X0.225000X0*%
%ADD30FreePoly0,0.000000*%
%ADD31RoundRect,0.200000X-0.275000X0.200000X-0.275000X-0.200000X0.275000X-0.200000X0.275000X0.200000X0*%
%ADD32RoundRect,0.225000X-0.225000X-0.375000X0.225000X-0.375000X0.225000X0.375000X-0.225000X0.375000X0*%
%ADD33C,1.524000*%
%ADD34RoundRect,0.250000X-1.250000X-0.550000X1.250000X-0.550000X1.250000X0.550000X-1.250000X0.550000X0*%
%ADD35RoundRect,0.250000X-0.550000X1.250000X-0.550000X-1.250000X0.550000X-1.250000X0.550000X1.250000X0*%
%ADD36RoundRect,0.225000X0.250000X-0.225000X0.250000X0.225000X-0.250000X0.225000X-0.250000X-0.225000X0*%
%ADD37RoundRect,0.150000X0.150000X-0.825000X0.150000X0.825000X-0.150000X0.825000X-0.150000X-0.825000X0*%
%ADD38O,2.720000X3.240000*%
%ADD39R,1.800000X1.800000*%
%ADD40C,1.800000*%
%ADD41RoundRect,0.225000X0.225000X0.250000X-0.225000X0.250000X-0.225000X-0.250000X0.225000X-0.250000X0*%
%ADD42RoundRect,0.150000X-0.150000X0.825000X-0.150000X-0.825000X0.150000X-0.825000X0.150000X0.825000X0*%
%ADD43RoundRect,0.112500X-0.187500X-0.112500X0.187500X-0.112500X0.187500X0.112500X-0.187500X0.112500X0*%
%ADD44RoundRect,0.200000X0.275000X-0.200000X0.275000X0.200000X-0.275000X0.200000X-0.275000X-0.200000X0*%
G04 APERTURE END LIST*
D10*
X114668524Y-61140763D02*
X114716144Y-61236001D01*
X114716144Y-61236001D02*
X114811382Y-61283620D01*
X114811382Y-61283620D02*
X115668524Y-61283620D01*
X114668524Y-60759810D02*
X115335191Y-60759810D01*
X115668524Y-60759810D02*
X115620905Y-60807429D01*
X115620905Y-60807429D02*
X115573286Y-60759810D01*
X115573286Y-60759810D02*
X115620905Y-60712191D01*
X115620905Y-60712191D02*
X115668524Y-60759810D01*
X115668524Y-60759810D02*
X115573286Y-60759810D01*
X114668524Y-60283620D02*
X115335191Y-60283620D01*
X115239953Y-60283620D02*
X115287572Y-60236001D01*
X115287572Y-60236001D02*
X115335191Y-60140763D01*
X115335191Y-60140763D02*
X115335191Y-59997906D01*
X115335191Y-59997906D02*
X115287572Y-59902668D01*
X115287572Y-59902668D02*
X115192334Y-59855049D01*
X115192334Y-59855049D02*
X114668524Y-59855049D01*
X115192334Y-59855049D02*
X115287572Y-59807430D01*
X115287572Y-59807430D02*
X115335191Y-59712192D01*
X115335191Y-59712192D02*
X115335191Y-59569335D01*
X115335191Y-59569335D02*
X115287572Y-59474096D01*
X115287572Y-59474096D02*
X115192334Y-59426477D01*
X115192334Y-59426477D02*
X114668524Y-59426477D01*
X114668524Y-58950287D02*
X115335191Y-58950287D01*
X115668524Y-58950287D02*
X115620905Y-58997906D01*
X115620905Y-58997906D02*
X115573286Y-58950287D01*
X115573286Y-58950287D02*
X115620905Y-58902668D01*
X115620905Y-58902668D02*
X115668524Y-58950287D01*
X115668524Y-58950287D02*
X115573286Y-58950287D01*
X115335191Y-58616954D02*
X115335191Y-58236002D01*
X115668524Y-58474097D02*
X114811382Y-58474097D01*
X114811382Y-58474097D02*
X114716144Y-58426478D01*
X114716144Y-58426478D02*
X114668524Y-58331240D01*
X114668524Y-58331240D02*
X114668524Y-58236002D01*
X114716144Y-57521716D02*
X114668524Y-57616954D01*
X114668524Y-57616954D02*
X114668524Y-57807430D01*
X114668524Y-57807430D02*
X114716144Y-57902668D01*
X114716144Y-57902668D02*
X114811382Y-57950287D01*
X114811382Y-57950287D02*
X115192334Y-57950287D01*
X115192334Y-57950287D02*
X115287572Y-57902668D01*
X115287572Y-57902668D02*
X115335191Y-57807430D01*
X115335191Y-57807430D02*
X115335191Y-57616954D01*
X115335191Y-57616954D02*
X115287572Y-57521716D01*
X115287572Y-57521716D02*
X115192334Y-57474097D01*
X115192334Y-57474097D02*
X115097096Y-57474097D01*
X115097096Y-57474097D02*
X115001858Y-57950287D01*
X114668524Y-57045525D02*
X115335191Y-57045525D01*
X115144715Y-57045525D02*
X115239953Y-56997906D01*
X115239953Y-56997906D02*
X115287572Y-56950287D01*
X115287572Y-56950287D02*
X115335191Y-56855049D01*
X115335191Y-56855049D02*
X115335191Y-56759811D01*
X113725247Y-61283620D02*
X112725247Y-61283620D01*
X113677628Y-61283620D02*
X113725247Y-61188382D01*
X113725247Y-61188382D02*
X113725247Y-60997906D01*
X113725247Y-60997906D02*
X113677628Y-60902668D01*
X113677628Y-60902668D02*
X113630009Y-60855049D01*
X113630009Y-60855049D02*
X113534771Y-60807430D01*
X113534771Y-60807430D02*
X113249057Y-60807430D01*
X113249057Y-60807430D02*
X113153819Y-60855049D01*
X113153819Y-60855049D02*
X113106200Y-60902668D01*
X113106200Y-60902668D02*
X113058580Y-60997906D01*
X113058580Y-60997906D02*
X113058580Y-61188382D01*
X113058580Y-61188382D02*
X113106200Y-61283620D01*
X113058580Y-60236001D02*
X113106200Y-60331239D01*
X113106200Y-60331239D02*
X113153819Y-60378858D01*
X113153819Y-60378858D02*
X113249057Y-60426477D01*
X113249057Y-60426477D02*
X113534771Y-60426477D01*
X113534771Y-60426477D02*
X113630009Y-60378858D01*
X113630009Y-60378858D02*
X113677628Y-60331239D01*
X113677628Y-60331239D02*
X113725247Y-60236001D01*
X113725247Y-60236001D02*
X113725247Y-60093144D01*
X113725247Y-60093144D02*
X113677628Y-59997906D01*
X113677628Y-59997906D02*
X113630009Y-59950287D01*
X113630009Y-59950287D02*
X113534771Y-59902668D01*
X113534771Y-59902668D02*
X113249057Y-59902668D01*
X113249057Y-59902668D02*
X113153819Y-59950287D01*
X113153819Y-59950287D02*
X113106200Y-59997906D01*
X113106200Y-59997906D02*
X113058580Y-60093144D01*
X113058580Y-60093144D02*
X113058580Y-60236001D01*
X113106200Y-59521715D02*
X113058580Y-59426477D01*
X113058580Y-59426477D02*
X113058580Y-59236001D01*
X113058580Y-59236001D02*
X113106200Y-59140763D01*
X113106200Y-59140763D02*
X113201438Y-59093144D01*
X113201438Y-59093144D02*
X113249057Y-59093144D01*
X113249057Y-59093144D02*
X113344295Y-59140763D01*
X113344295Y-59140763D02*
X113391914Y-59236001D01*
X113391914Y-59236001D02*
X113391914Y-59378858D01*
X113391914Y-59378858D02*
X113439533Y-59474096D01*
X113439533Y-59474096D02*
X113534771Y-59521715D01*
X113534771Y-59521715D02*
X113582390Y-59521715D01*
X113582390Y-59521715D02*
X113677628Y-59474096D01*
X113677628Y-59474096D02*
X113725247Y-59378858D01*
X113725247Y-59378858D02*
X113725247Y-59236001D01*
X113725247Y-59236001D02*
X113677628Y-59140763D01*
X128489152Y-81016722D02*
X128489152Y-81397674D01*
X129155819Y-81159579D02*
X128298676Y-81159579D01*
X128298676Y-81159579D02*
X128203438Y-81207198D01*
X128203438Y-81207198D02*
X128155819Y-81302436D01*
X128155819Y-81302436D02*
X128155819Y-81397674D01*
X129155819Y-81731008D02*
X128155819Y-81731008D01*
X128536771Y-81731008D02*
X128489152Y-81826246D01*
X128489152Y-81826246D02*
X128489152Y-82016722D01*
X128489152Y-82016722D02*
X128536771Y-82111960D01*
X128536771Y-82111960D02*
X128584390Y-82159579D01*
X128584390Y-82159579D02*
X128679628Y-82207198D01*
X128679628Y-82207198D02*
X128965342Y-82207198D01*
X128965342Y-82207198D02*
X129060580Y-82159579D01*
X129060580Y-82159579D02*
X129108200Y-82111960D01*
X129108200Y-82111960D02*
X129155819Y-82016722D01*
X129155819Y-82016722D02*
X129155819Y-81826246D01*
X129155819Y-81826246D02*
X129108200Y-81731008D01*
X129155819Y-83826246D02*
X128632009Y-83826246D01*
X128632009Y-83826246D02*
X128536771Y-83778627D01*
X128536771Y-83778627D02*
X128489152Y-83683389D01*
X128489152Y-83683389D02*
X128489152Y-83492913D01*
X128489152Y-83492913D02*
X128536771Y-83397675D01*
X129108200Y-83826246D02*
X129155819Y-83731008D01*
X129155819Y-83731008D02*
X129155819Y-83492913D01*
X129155819Y-83492913D02*
X129108200Y-83397675D01*
X129108200Y-83397675D02*
X129012961Y-83350056D01*
X129012961Y-83350056D02*
X128917723Y-83350056D01*
X128917723Y-83350056D02*
X128822485Y-83397675D01*
X128822485Y-83397675D02*
X128774866Y-83492913D01*
X128774866Y-83492913D02*
X128774866Y-83731008D01*
X128774866Y-83731008D02*
X128727247Y-83826246D01*
X129155819Y-84302437D02*
X128489152Y-84302437D01*
X128584390Y-84302437D02*
X128536771Y-84350056D01*
X128536771Y-84350056D02*
X128489152Y-84445294D01*
X128489152Y-84445294D02*
X128489152Y-84588151D01*
X128489152Y-84588151D02*
X128536771Y-84683389D01*
X128536771Y-84683389D02*
X128632009Y-84731008D01*
X128632009Y-84731008D02*
X129155819Y-84731008D01*
X128632009Y-84731008D02*
X128536771Y-84778627D01*
X128536771Y-84778627D02*
X128489152Y-84873865D01*
X128489152Y-84873865D02*
X128489152Y-85016722D01*
X128489152Y-85016722D02*
X128536771Y-85111961D01*
X128536771Y-85111961D02*
X128632009Y-85159580D01*
X128632009Y-85159580D02*
X129155819Y-85159580D01*
X128489152Y-85492913D02*
X128489152Y-85873865D01*
X128155819Y-85635770D02*
X129012961Y-85635770D01*
X129012961Y-85635770D02*
X129108200Y-85683389D01*
X129108200Y-85683389D02*
X129155819Y-85778627D01*
X129155819Y-85778627D02*
X129155819Y-85873865D01*
X133619952Y-49469922D02*
X133619952Y-49850874D01*
X134286619Y-49612779D02*
X133429476Y-49612779D01*
X133429476Y-49612779D02*
X133334238Y-49660398D01*
X133334238Y-49660398D02*
X133286619Y-49755636D01*
X133286619Y-49755636D02*
X133286619Y-49850874D01*
X134286619Y-50184208D02*
X133286619Y-50184208D01*
X133667571Y-50184208D02*
X133619952Y-50279446D01*
X133619952Y-50279446D02*
X133619952Y-50469922D01*
X133619952Y-50469922D02*
X133667571Y-50565160D01*
X133667571Y-50565160D02*
X133715190Y-50612779D01*
X133715190Y-50612779D02*
X133810428Y-50660398D01*
X133810428Y-50660398D02*
X134096142Y-50660398D01*
X134096142Y-50660398D02*
X134191380Y-50612779D01*
X134191380Y-50612779D02*
X134239000Y-50565160D01*
X134239000Y-50565160D02*
X134286619Y-50469922D01*
X134286619Y-50469922D02*
X134286619Y-50279446D01*
X134286619Y-50279446D02*
X134239000Y-50184208D01*
X133619952Y-52279446D02*
X134429476Y-52279446D01*
X134429476Y-52279446D02*
X134524714Y-52231827D01*
X134524714Y-52231827D02*
X134572333Y-52184208D01*
X134572333Y-52184208D02*
X134619952Y-52088970D01*
X134619952Y-52088970D02*
X134619952Y-51946113D01*
X134619952Y-51946113D02*
X134572333Y-51850875D01*
X134239000Y-52279446D02*
X134286619Y-52184208D01*
X134286619Y-52184208D02*
X134286619Y-51993732D01*
X134286619Y-51993732D02*
X134239000Y-51898494D01*
X134239000Y-51898494D02*
X134191380Y-51850875D01*
X134191380Y-51850875D02*
X134096142Y-51803256D01*
X134096142Y-51803256D02*
X133810428Y-51803256D01*
X133810428Y-51803256D02*
X133715190Y-51850875D01*
X133715190Y-51850875D02*
X133667571Y-51898494D01*
X133667571Y-51898494D02*
X133619952Y-51993732D01*
X133619952Y-51993732D02*
X133619952Y-52184208D01*
X133619952Y-52184208D02*
X133667571Y-52279446D01*
X134286619Y-53184208D02*
X133762809Y-53184208D01*
X133762809Y-53184208D02*
X133667571Y-53136589D01*
X133667571Y-53136589D02*
X133619952Y-53041351D01*
X133619952Y-53041351D02*
X133619952Y-52850875D01*
X133619952Y-52850875D02*
X133667571Y-52755637D01*
X134239000Y-53184208D02*
X134286619Y-53088970D01*
X134286619Y-53088970D02*
X134286619Y-52850875D01*
X134286619Y-52850875D02*
X134239000Y-52755637D01*
X134239000Y-52755637D02*
X134143761Y-52708018D01*
X134143761Y-52708018D02*
X134048523Y-52708018D01*
X134048523Y-52708018D02*
X133953285Y-52755637D01*
X133953285Y-52755637D02*
X133905666Y-52850875D01*
X133905666Y-52850875D02*
X133905666Y-53088970D01*
X133905666Y-53088970D02*
X133858047Y-53184208D01*
X134286619Y-53660399D02*
X133619952Y-53660399D01*
X133286619Y-53660399D02*
X133334238Y-53612780D01*
X133334238Y-53612780D02*
X133381857Y-53660399D01*
X133381857Y-53660399D02*
X133334238Y-53708018D01*
X133334238Y-53708018D02*
X133286619Y-53660399D01*
X133286619Y-53660399D02*
X133381857Y-53660399D01*
X133619952Y-54136589D02*
X134286619Y-54136589D01*
X133715190Y-54136589D02*
X133667571Y-54184208D01*
X133667571Y-54184208D02*
X133619952Y-54279446D01*
X133619952Y-54279446D02*
X133619952Y-54422303D01*
X133619952Y-54422303D02*
X133667571Y-54517541D01*
X133667571Y-54517541D02*
X133762809Y-54565160D01*
X133762809Y-54565160D02*
X134286619Y-54565160D01*
X112798219Y-50720836D02*
X112750600Y-50625598D01*
X112750600Y-50625598D02*
X112655361Y-50577979D01*
X112655361Y-50577979D02*
X111798219Y-50577979D01*
X112798219Y-51101789D02*
X112131552Y-51101789D01*
X111798219Y-51101789D02*
X111845838Y-51054170D01*
X111845838Y-51054170D02*
X111893457Y-51101789D01*
X111893457Y-51101789D02*
X111845838Y-51149408D01*
X111845838Y-51149408D02*
X111798219Y-51101789D01*
X111798219Y-51101789D02*
X111893457Y-51101789D01*
X112798219Y-51577979D02*
X112131552Y-51577979D01*
X112226790Y-51577979D02*
X112179171Y-51625598D01*
X112179171Y-51625598D02*
X112131552Y-51720836D01*
X112131552Y-51720836D02*
X112131552Y-51863693D01*
X112131552Y-51863693D02*
X112179171Y-51958931D01*
X112179171Y-51958931D02*
X112274409Y-52006550D01*
X112274409Y-52006550D02*
X112798219Y-52006550D01*
X112274409Y-52006550D02*
X112179171Y-52054169D01*
X112179171Y-52054169D02*
X112131552Y-52149407D01*
X112131552Y-52149407D02*
X112131552Y-52292264D01*
X112131552Y-52292264D02*
X112179171Y-52387503D01*
X112179171Y-52387503D02*
X112274409Y-52435122D01*
X112274409Y-52435122D02*
X112798219Y-52435122D01*
X112798219Y-52911312D02*
X112131552Y-52911312D01*
X111798219Y-52911312D02*
X111845838Y-52863693D01*
X111845838Y-52863693D02*
X111893457Y-52911312D01*
X111893457Y-52911312D02*
X111845838Y-52958931D01*
X111845838Y-52958931D02*
X111798219Y-52911312D01*
X111798219Y-52911312D02*
X111893457Y-52911312D01*
X112131552Y-53244645D02*
X112131552Y-53625597D01*
X111798219Y-53387502D02*
X112655361Y-53387502D01*
X112655361Y-53387502D02*
X112750600Y-53435121D01*
X112750600Y-53435121D02*
X112798219Y-53530359D01*
X112798219Y-53530359D02*
X112798219Y-53625597D01*
X112750600Y-54339883D02*
X112798219Y-54244645D01*
X112798219Y-54244645D02*
X112798219Y-54054169D01*
X112798219Y-54054169D02*
X112750600Y-53958931D01*
X112750600Y-53958931D02*
X112655361Y-53911312D01*
X112655361Y-53911312D02*
X112274409Y-53911312D01*
X112274409Y-53911312D02*
X112179171Y-53958931D01*
X112179171Y-53958931D02*
X112131552Y-54054169D01*
X112131552Y-54054169D02*
X112131552Y-54244645D01*
X112131552Y-54244645D02*
X112179171Y-54339883D01*
X112179171Y-54339883D02*
X112274409Y-54387502D01*
X112274409Y-54387502D02*
X112369647Y-54387502D01*
X112369647Y-54387502D02*
X112464885Y-53911312D01*
X112798219Y-54816074D02*
X112131552Y-54816074D01*
X112322028Y-54816074D02*
X112226790Y-54863693D01*
X112226790Y-54863693D02*
X112179171Y-54911312D01*
X112179171Y-54911312D02*
X112131552Y-55006550D01*
X112131552Y-55006550D02*
X112131552Y-55101788D01*
X132343277Y-61941152D02*
X131962325Y-61941152D01*
X132200420Y-62607819D02*
X132200420Y-61750676D01*
X132200420Y-61750676D02*
X132152801Y-61655438D01*
X132152801Y-61655438D02*
X132057563Y-61607819D01*
X132057563Y-61607819D02*
X131962325Y-61607819D01*
X131628991Y-62607819D02*
X131628991Y-61607819D01*
X131628991Y-61988771D02*
X131533753Y-61941152D01*
X131533753Y-61941152D02*
X131343277Y-61941152D01*
X131343277Y-61941152D02*
X131248039Y-61988771D01*
X131248039Y-61988771D02*
X131200420Y-62036390D01*
X131200420Y-62036390D02*
X131152801Y-62131628D01*
X131152801Y-62131628D02*
X131152801Y-62417342D01*
X131152801Y-62417342D02*
X131200420Y-62512580D01*
X131200420Y-62512580D02*
X131248039Y-62560200D01*
X131248039Y-62560200D02*
X131343277Y-62607819D01*
X131343277Y-62607819D02*
X131533753Y-62607819D01*
X131533753Y-62607819D02*
X131628991Y-62560200D01*
X129962324Y-61941152D02*
X129962324Y-62941152D01*
X129962324Y-61988771D02*
X129867086Y-61941152D01*
X129867086Y-61941152D02*
X129676610Y-61941152D01*
X129676610Y-61941152D02*
X129581372Y-61988771D01*
X129581372Y-61988771D02*
X129533753Y-62036390D01*
X129533753Y-62036390D02*
X129486134Y-62131628D01*
X129486134Y-62131628D02*
X129486134Y-62417342D01*
X129486134Y-62417342D02*
X129533753Y-62512580D01*
X129533753Y-62512580D02*
X129581372Y-62560200D01*
X129581372Y-62560200D02*
X129676610Y-62607819D01*
X129676610Y-62607819D02*
X129867086Y-62607819D01*
X129867086Y-62607819D02*
X129962324Y-62560200D01*
X129057562Y-62607819D02*
X129057562Y-61607819D01*
X128628991Y-62607819D02*
X128628991Y-62084009D01*
X128628991Y-62084009D02*
X128676610Y-61988771D01*
X128676610Y-61988771D02*
X128771848Y-61941152D01*
X128771848Y-61941152D02*
X128914705Y-61941152D01*
X128914705Y-61941152D02*
X129009943Y-61988771D01*
X129009943Y-61988771D02*
X129057562Y-62036390D01*
X127724229Y-62607819D02*
X127724229Y-62084009D01*
X127724229Y-62084009D02*
X127771848Y-61988771D01*
X127771848Y-61988771D02*
X127867086Y-61941152D01*
X127867086Y-61941152D02*
X128057562Y-61941152D01*
X128057562Y-61941152D02*
X128152800Y-61988771D01*
X127724229Y-62560200D02*
X127819467Y-62607819D01*
X127819467Y-62607819D02*
X128057562Y-62607819D01*
X128057562Y-62607819D02*
X128152800Y-62560200D01*
X128152800Y-62560200D02*
X128200419Y-62464961D01*
X128200419Y-62464961D02*
X128200419Y-62369723D01*
X128200419Y-62369723D02*
X128152800Y-62274485D01*
X128152800Y-62274485D02*
X128057562Y-62226866D01*
X128057562Y-62226866D02*
X127819467Y-62226866D01*
X127819467Y-62226866D02*
X127724229Y-62179247D01*
X127295657Y-62560200D02*
X127200419Y-62607819D01*
X127200419Y-62607819D02*
X127009943Y-62607819D01*
X127009943Y-62607819D02*
X126914705Y-62560200D01*
X126914705Y-62560200D02*
X126867086Y-62464961D01*
X126867086Y-62464961D02*
X126867086Y-62417342D01*
X126867086Y-62417342D02*
X126914705Y-62322104D01*
X126914705Y-62322104D02*
X127009943Y-62274485D01*
X127009943Y-62274485D02*
X127152800Y-62274485D01*
X127152800Y-62274485D02*
X127248038Y-62226866D01*
X127248038Y-62226866D02*
X127295657Y-62131628D01*
X127295657Y-62131628D02*
X127295657Y-62084009D01*
X127295657Y-62084009D02*
X127248038Y-61988771D01*
X127248038Y-61988771D02*
X127152800Y-61941152D01*
X127152800Y-61941152D02*
X127009943Y-61941152D01*
X127009943Y-61941152D02*
X126914705Y-61988771D01*
X126057562Y-62560200D02*
X126152800Y-62607819D01*
X126152800Y-62607819D02*
X126343276Y-62607819D01*
X126343276Y-62607819D02*
X126438514Y-62560200D01*
X126438514Y-62560200D02*
X126486133Y-62464961D01*
X126486133Y-62464961D02*
X126486133Y-62084009D01*
X126486133Y-62084009D02*
X126438514Y-61988771D01*
X126438514Y-61988771D02*
X126343276Y-61941152D01*
X126343276Y-61941152D02*
X126152800Y-61941152D01*
X126152800Y-61941152D02*
X126057562Y-61988771D01*
X126057562Y-61988771D02*
X126009943Y-62084009D01*
X126009943Y-62084009D02*
X126009943Y-62179247D01*
X126009943Y-62179247D02*
X126486133Y-62274485D01*
X120029266Y-64386619D02*
X120362599Y-63910428D01*
X120600694Y-64386619D02*
X120600694Y-63386619D01*
X120600694Y-63386619D02*
X120219742Y-63386619D01*
X120219742Y-63386619D02*
X120124504Y-63434238D01*
X120124504Y-63434238D02*
X120076885Y-63481857D01*
X120076885Y-63481857D02*
X120029266Y-63577095D01*
X120029266Y-63577095D02*
X120029266Y-63719952D01*
X120029266Y-63719952D02*
X120076885Y-63815190D01*
X120076885Y-63815190D02*
X120124504Y-63862809D01*
X120124504Y-63862809D02*
X120219742Y-63910428D01*
X120219742Y-63910428D02*
X120600694Y-63910428D01*
X119172123Y-63719952D02*
X119172123Y-64386619D01*
X119410218Y-63339000D02*
X119648313Y-64053285D01*
X119648313Y-64053285D02*
X119029266Y-64053285D01*
X131820657Y-49070419D02*
X132153990Y-48594228D01*
X132392085Y-49070419D02*
X132392085Y-48070419D01*
X132392085Y-48070419D02*
X132011133Y-48070419D01*
X132011133Y-48070419D02*
X131915895Y-48118038D01*
X131915895Y-48118038D02*
X131868276Y-48165657D01*
X131868276Y-48165657D02*
X131820657Y-48260895D01*
X131820657Y-48260895D02*
X131820657Y-48403752D01*
X131820657Y-48403752D02*
X131868276Y-48498990D01*
X131868276Y-48498990D02*
X131915895Y-48546609D01*
X131915895Y-48546609D02*
X132011133Y-48594228D01*
X132011133Y-48594228D02*
X132392085Y-48594228D01*
X130868276Y-49070419D02*
X131439704Y-49070419D01*
X131153990Y-49070419D02*
X131153990Y-48070419D01*
X131153990Y-48070419D02*
X131249228Y-48213276D01*
X131249228Y-48213276D02*
X131344466Y-48308514D01*
X131344466Y-48308514D02*
X131439704Y-48356133D01*
X130534942Y-48070419D02*
X129868276Y-48070419D01*
X129868276Y-48070419D02*
X130296847Y-49070419D01*
X145066104Y-92360467D02*
X145104200Y-92322371D01*
X145104200Y-92322371D02*
X145142295Y-92208086D01*
X145142295Y-92208086D02*
X145142295Y-92131895D01*
X145142295Y-92131895D02*
X145104200Y-92017609D01*
X145104200Y-92017609D02*
X145028009Y-91941419D01*
X145028009Y-91941419D02*
X144951819Y-91903324D01*
X144951819Y-91903324D02*
X144799438Y-91865228D01*
X144799438Y-91865228D02*
X144685152Y-91865228D01*
X144685152Y-91865228D02*
X144532771Y-91903324D01*
X144532771Y-91903324D02*
X144456580Y-91941419D01*
X144456580Y-91941419D02*
X144380390Y-92017609D01*
X144380390Y-92017609D02*
X144342295Y-92131895D01*
X144342295Y-92131895D02*
X144342295Y-92208086D01*
X144342295Y-92208086D02*
X144380390Y-92322371D01*
X144380390Y-92322371D02*
X144418485Y-92360467D01*
X144342295Y-92627133D02*
X144342295Y-93160467D01*
X144342295Y-93160467D02*
X145142295Y-92817609D01*
X128902619Y-48664905D02*
X127902619Y-48664905D01*
X127902619Y-48664905D02*
X127902619Y-48903000D01*
X127902619Y-48903000D02*
X127950238Y-49045857D01*
X127950238Y-49045857D02*
X128045476Y-49141095D01*
X128045476Y-49141095D02*
X128140714Y-49188714D01*
X128140714Y-49188714D02*
X128331190Y-49236333D01*
X128331190Y-49236333D02*
X128474047Y-49236333D01*
X128474047Y-49236333D02*
X128664523Y-49188714D01*
X128664523Y-49188714D02*
X128759761Y-49141095D01*
X128759761Y-49141095D02*
X128855000Y-49045857D01*
X128855000Y-49045857D02*
X128902619Y-48903000D01*
X128902619Y-48903000D02*
X128902619Y-48664905D01*
X128902619Y-50188714D02*
X128902619Y-49617286D01*
X128902619Y-49903000D02*
X127902619Y-49903000D01*
X127902619Y-49903000D02*
X128045476Y-49807762D01*
X128045476Y-49807762D02*
X128140714Y-49712524D01*
X128140714Y-49712524D02*
X128188333Y-49617286D01*
X142044657Y-120952419D02*
X142377990Y-120476228D01*
X142616085Y-120952419D02*
X142616085Y-119952419D01*
X142616085Y-119952419D02*
X142235133Y-119952419D01*
X142235133Y-119952419D02*
X142139895Y-120000038D01*
X142139895Y-120000038D02*
X142092276Y-120047657D01*
X142092276Y-120047657D02*
X142044657Y-120142895D01*
X142044657Y-120142895D02*
X142044657Y-120285752D01*
X142044657Y-120285752D02*
X142092276Y-120380990D01*
X142092276Y-120380990D02*
X142139895Y-120428609D01*
X142139895Y-120428609D02*
X142235133Y-120476228D01*
X142235133Y-120476228D02*
X142616085Y-120476228D01*
X141663704Y-120047657D02*
X141616085Y-120000038D01*
X141616085Y-120000038D02*
X141520847Y-119952419D01*
X141520847Y-119952419D02*
X141282752Y-119952419D01*
X141282752Y-119952419D02*
X141187514Y-120000038D01*
X141187514Y-120000038D02*
X141139895Y-120047657D01*
X141139895Y-120047657D02*
X141092276Y-120142895D01*
X141092276Y-120142895D02*
X141092276Y-120238133D01*
X141092276Y-120238133D02*
X141139895Y-120380990D01*
X141139895Y-120380990D02*
X141711323Y-120952419D01*
X141711323Y-120952419D02*
X141092276Y-120952419D01*
X140473228Y-119952419D02*
X140377990Y-119952419D01*
X140377990Y-119952419D02*
X140282752Y-120000038D01*
X140282752Y-120000038D02*
X140235133Y-120047657D01*
X140235133Y-120047657D02*
X140187514Y-120142895D01*
X140187514Y-120142895D02*
X140139895Y-120333371D01*
X140139895Y-120333371D02*
X140139895Y-120571466D01*
X140139895Y-120571466D02*
X140187514Y-120761942D01*
X140187514Y-120761942D02*
X140235133Y-120857180D01*
X140235133Y-120857180D02*
X140282752Y-120904800D01*
X140282752Y-120904800D02*
X140377990Y-120952419D01*
X140377990Y-120952419D02*
X140473228Y-120952419D01*
X140473228Y-120952419D02*
X140568466Y-120904800D01*
X140568466Y-120904800D02*
X140616085Y-120857180D01*
X140616085Y-120857180D02*
X140663704Y-120761942D01*
X140663704Y-120761942D02*
X140711323Y-120571466D01*
X140711323Y-120571466D02*
X140711323Y-120333371D01*
X140711323Y-120333371D02*
X140663704Y-120142895D01*
X140663704Y-120142895D02*
X140616085Y-120047657D01*
X140616085Y-120047657D02*
X140568466Y-120000038D01*
X140568466Y-120000038D02*
X140473228Y-119952419D01*
X135335180Y-94581742D02*
X135382800Y-94534123D01*
X135382800Y-94534123D02*
X135430419Y-94391266D01*
X135430419Y-94391266D02*
X135430419Y-94296028D01*
X135430419Y-94296028D02*
X135382800Y-94153171D01*
X135382800Y-94153171D02*
X135287561Y-94057933D01*
X135287561Y-94057933D02*
X135192323Y-94010314D01*
X135192323Y-94010314D02*
X135001847Y-93962695D01*
X135001847Y-93962695D02*
X134858990Y-93962695D01*
X134858990Y-93962695D02*
X134668514Y-94010314D01*
X134668514Y-94010314D02*
X134573276Y-94057933D01*
X134573276Y-94057933D02*
X134478038Y-94153171D01*
X134478038Y-94153171D02*
X134430419Y-94296028D01*
X134430419Y-94296028D02*
X134430419Y-94391266D01*
X134430419Y-94391266D02*
X134478038Y-94534123D01*
X134478038Y-94534123D02*
X134525657Y-94581742D01*
X135430419Y-95534123D02*
X135430419Y-94962695D01*
X135430419Y-95248409D02*
X134430419Y-95248409D01*
X134430419Y-95248409D02*
X134573276Y-95153171D01*
X134573276Y-95153171D02*
X134668514Y-95057933D01*
X134668514Y-95057933D02*
X134716133Y-94962695D01*
X134430419Y-95867457D02*
X134430419Y-96486504D01*
X134430419Y-96486504D02*
X134811371Y-96153171D01*
X134811371Y-96153171D02*
X134811371Y-96296028D01*
X134811371Y-96296028D02*
X134858990Y-96391266D01*
X134858990Y-96391266D02*
X134906609Y-96438885D01*
X134906609Y-96438885D02*
X135001847Y-96486504D01*
X135001847Y-96486504D02*
X135239942Y-96486504D01*
X135239942Y-96486504D02*
X135335180Y-96438885D01*
X135335180Y-96438885D02*
X135382800Y-96391266D01*
X135382800Y-96391266D02*
X135430419Y-96296028D01*
X135430419Y-96296028D02*
X135430419Y-96010314D01*
X135430419Y-96010314D02*
X135382800Y-95915076D01*
X135382800Y-95915076D02*
X135335180Y-95867457D01*
X140088857Y-86008380D02*
X140136476Y-86056000D01*
X140136476Y-86056000D02*
X140279333Y-86103619D01*
X140279333Y-86103619D02*
X140374571Y-86103619D01*
X140374571Y-86103619D02*
X140517428Y-86056000D01*
X140517428Y-86056000D02*
X140612666Y-85960761D01*
X140612666Y-85960761D02*
X140660285Y-85865523D01*
X140660285Y-85865523D02*
X140707904Y-85675047D01*
X140707904Y-85675047D02*
X140707904Y-85532190D01*
X140707904Y-85532190D02*
X140660285Y-85341714D01*
X140660285Y-85341714D02*
X140612666Y-85246476D01*
X140612666Y-85246476D02*
X140517428Y-85151238D01*
X140517428Y-85151238D02*
X140374571Y-85103619D01*
X140374571Y-85103619D02*
X140279333Y-85103619D01*
X140279333Y-85103619D02*
X140136476Y-85151238D01*
X140136476Y-85151238D02*
X140088857Y-85198857D01*
X139136476Y-86103619D02*
X139707904Y-86103619D01*
X139422190Y-86103619D02*
X139422190Y-85103619D01*
X139422190Y-85103619D02*
X139517428Y-85246476D01*
X139517428Y-85246476D02*
X139612666Y-85341714D01*
X139612666Y-85341714D02*
X139707904Y-85389333D01*
X138231714Y-85103619D02*
X138707904Y-85103619D01*
X138707904Y-85103619D02*
X138755523Y-85579809D01*
X138755523Y-85579809D02*
X138707904Y-85532190D01*
X138707904Y-85532190D02*
X138612666Y-85484571D01*
X138612666Y-85484571D02*
X138374571Y-85484571D01*
X138374571Y-85484571D02*
X138279333Y-85532190D01*
X138279333Y-85532190D02*
X138231714Y-85579809D01*
X138231714Y-85579809D02*
X138184095Y-85675047D01*
X138184095Y-85675047D02*
X138184095Y-85913142D01*
X138184095Y-85913142D02*
X138231714Y-86008380D01*
X138231714Y-86008380D02*
X138279333Y-86056000D01*
X138279333Y-86056000D02*
X138374571Y-86103619D01*
X138374571Y-86103619D02*
X138612666Y-86103619D01*
X138612666Y-86103619D02*
X138707904Y-86056000D01*
X138707904Y-86056000D02*
X138755523Y-86008380D01*
X132348266Y-114297619D02*
X132681599Y-113821428D01*
X132919694Y-114297619D02*
X132919694Y-113297619D01*
X132919694Y-113297619D02*
X132538742Y-113297619D01*
X132538742Y-113297619D02*
X132443504Y-113345238D01*
X132443504Y-113345238D02*
X132395885Y-113392857D01*
X132395885Y-113392857D02*
X132348266Y-113488095D01*
X132348266Y-113488095D02*
X132348266Y-113630952D01*
X132348266Y-113630952D02*
X132395885Y-113726190D01*
X132395885Y-113726190D02*
X132443504Y-113773809D01*
X132443504Y-113773809D02*
X132538742Y-113821428D01*
X132538742Y-113821428D02*
X132919694Y-113821428D01*
X132014932Y-113297619D02*
X131395885Y-113297619D01*
X131395885Y-113297619D02*
X131729218Y-113678571D01*
X131729218Y-113678571D02*
X131586361Y-113678571D01*
X131586361Y-113678571D02*
X131491123Y-113726190D01*
X131491123Y-113726190D02*
X131443504Y-113773809D01*
X131443504Y-113773809D02*
X131395885Y-113869047D01*
X131395885Y-113869047D02*
X131395885Y-114107142D01*
X131395885Y-114107142D02*
X131443504Y-114202380D01*
X131443504Y-114202380D02*
X131491123Y-114250000D01*
X131491123Y-114250000D02*
X131586361Y-114297619D01*
X131586361Y-114297619D02*
X131872075Y-114297619D01*
X131872075Y-114297619D02*
X131967313Y-114250000D01*
X131967313Y-114250000D02*
X132014932Y-114202380D01*
X142828180Y-92340133D02*
X142875800Y-92292514D01*
X142875800Y-92292514D02*
X142923419Y-92149657D01*
X142923419Y-92149657D02*
X142923419Y-92054419D01*
X142923419Y-92054419D02*
X142875800Y-91911562D01*
X142875800Y-91911562D02*
X142780561Y-91816324D01*
X142780561Y-91816324D02*
X142685323Y-91768705D01*
X142685323Y-91768705D02*
X142494847Y-91721086D01*
X142494847Y-91721086D02*
X142351990Y-91721086D01*
X142351990Y-91721086D02*
X142161514Y-91768705D01*
X142161514Y-91768705D02*
X142066276Y-91816324D01*
X142066276Y-91816324D02*
X141971038Y-91911562D01*
X141971038Y-91911562D02*
X141923419Y-92054419D01*
X141923419Y-92054419D02*
X141923419Y-92149657D01*
X141923419Y-92149657D02*
X141971038Y-92292514D01*
X141971038Y-92292514D02*
X142018657Y-92340133D01*
X142923419Y-92816324D02*
X142923419Y-93006800D01*
X142923419Y-93006800D02*
X142875800Y-93102038D01*
X142875800Y-93102038D02*
X142828180Y-93149657D01*
X142828180Y-93149657D02*
X142685323Y-93244895D01*
X142685323Y-93244895D02*
X142494847Y-93292514D01*
X142494847Y-93292514D02*
X142113895Y-93292514D01*
X142113895Y-93292514D02*
X142018657Y-93244895D01*
X142018657Y-93244895D02*
X141971038Y-93197276D01*
X141971038Y-93197276D02*
X141923419Y-93102038D01*
X141923419Y-93102038D02*
X141923419Y-92911562D01*
X141923419Y-92911562D02*
X141971038Y-92816324D01*
X141971038Y-92816324D02*
X142018657Y-92768705D01*
X142018657Y-92768705D02*
X142113895Y-92721086D01*
X142113895Y-92721086D02*
X142351990Y-92721086D01*
X142351990Y-92721086D02*
X142447228Y-92768705D01*
X142447228Y-92768705D02*
X142494847Y-92816324D01*
X142494847Y-92816324D02*
X142542466Y-92911562D01*
X142542466Y-92911562D02*
X142542466Y-93102038D01*
X142542466Y-93102038D02*
X142494847Y-93197276D01*
X142494847Y-93197276D02*
X142447228Y-93244895D01*
X142447228Y-93244895D02*
X142351990Y-93292514D01*
X118215580Y-77658933D02*
X118263200Y-77611314D01*
X118263200Y-77611314D02*
X118310819Y-77468457D01*
X118310819Y-77468457D02*
X118310819Y-77373219D01*
X118310819Y-77373219D02*
X118263200Y-77230362D01*
X118263200Y-77230362D02*
X118167961Y-77135124D01*
X118167961Y-77135124D02*
X118072723Y-77087505D01*
X118072723Y-77087505D02*
X117882247Y-77039886D01*
X117882247Y-77039886D02*
X117739390Y-77039886D01*
X117739390Y-77039886D02*
X117548914Y-77087505D01*
X117548914Y-77087505D02*
X117453676Y-77135124D01*
X117453676Y-77135124D02*
X117358438Y-77230362D01*
X117358438Y-77230362D02*
X117310819Y-77373219D01*
X117310819Y-77373219D02*
X117310819Y-77468457D01*
X117310819Y-77468457D02*
X117358438Y-77611314D01*
X117358438Y-77611314D02*
X117406057Y-77658933D01*
X117406057Y-78039886D02*
X117358438Y-78087505D01*
X117358438Y-78087505D02*
X117310819Y-78182743D01*
X117310819Y-78182743D02*
X117310819Y-78420838D01*
X117310819Y-78420838D02*
X117358438Y-78516076D01*
X117358438Y-78516076D02*
X117406057Y-78563695D01*
X117406057Y-78563695D02*
X117501295Y-78611314D01*
X117501295Y-78611314D02*
X117596533Y-78611314D01*
X117596533Y-78611314D02*
X117739390Y-78563695D01*
X117739390Y-78563695D02*
X118310819Y-77992267D01*
X118310819Y-77992267D02*
X118310819Y-78611314D01*
X118194057Y-50340419D02*
X118527390Y-49864228D01*
X118765485Y-50340419D02*
X118765485Y-49340419D01*
X118765485Y-49340419D02*
X118384533Y-49340419D01*
X118384533Y-49340419D02*
X118289295Y-49388038D01*
X118289295Y-49388038D02*
X118241676Y-49435657D01*
X118241676Y-49435657D02*
X118194057Y-49530895D01*
X118194057Y-49530895D02*
X118194057Y-49673752D01*
X118194057Y-49673752D02*
X118241676Y-49768990D01*
X118241676Y-49768990D02*
X118289295Y-49816609D01*
X118289295Y-49816609D02*
X118384533Y-49864228D01*
X118384533Y-49864228D02*
X118765485Y-49864228D01*
X117813104Y-49435657D02*
X117765485Y-49388038D01*
X117765485Y-49388038D02*
X117670247Y-49340419D01*
X117670247Y-49340419D02*
X117432152Y-49340419D01*
X117432152Y-49340419D02*
X117336914Y-49388038D01*
X117336914Y-49388038D02*
X117289295Y-49435657D01*
X117289295Y-49435657D02*
X117241676Y-49530895D01*
X117241676Y-49530895D02*
X117241676Y-49626133D01*
X117241676Y-49626133D02*
X117289295Y-49768990D01*
X117289295Y-49768990D02*
X117860723Y-50340419D01*
X117860723Y-50340419D02*
X117241676Y-50340419D01*
X116289295Y-50340419D02*
X116860723Y-50340419D01*
X116575009Y-50340419D02*
X116575009Y-49340419D01*
X116575009Y-49340419D02*
X116670247Y-49483276D01*
X116670247Y-49483276D02*
X116765485Y-49578514D01*
X116765485Y-49578514D02*
X116860723Y-49626133D01*
X124880666Y-66012219D02*
X125213999Y-65536028D01*
X125452094Y-66012219D02*
X125452094Y-65012219D01*
X125452094Y-65012219D02*
X125071142Y-65012219D01*
X125071142Y-65012219D02*
X124975904Y-65059838D01*
X124975904Y-65059838D02*
X124928285Y-65107457D01*
X124928285Y-65107457D02*
X124880666Y-65202695D01*
X124880666Y-65202695D02*
X124880666Y-65345552D01*
X124880666Y-65345552D02*
X124928285Y-65440790D01*
X124928285Y-65440790D02*
X124975904Y-65488409D01*
X124975904Y-65488409D02*
X125071142Y-65536028D01*
X125071142Y-65536028D02*
X125452094Y-65536028D01*
X124023523Y-65012219D02*
X124213999Y-65012219D01*
X124213999Y-65012219D02*
X124309237Y-65059838D01*
X124309237Y-65059838D02*
X124356856Y-65107457D01*
X124356856Y-65107457D02*
X124452094Y-65250314D01*
X124452094Y-65250314D02*
X124499713Y-65440790D01*
X124499713Y-65440790D02*
X124499713Y-65821742D01*
X124499713Y-65821742D02*
X124452094Y-65916980D01*
X124452094Y-65916980D02*
X124404475Y-65964600D01*
X124404475Y-65964600D02*
X124309237Y-66012219D01*
X124309237Y-66012219D02*
X124118761Y-66012219D01*
X124118761Y-66012219D02*
X124023523Y-65964600D01*
X124023523Y-65964600D02*
X123975904Y-65916980D01*
X123975904Y-65916980D02*
X123928285Y-65821742D01*
X123928285Y-65821742D02*
X123928285Y-65583647D01*
X123928285Y-65583647D02*
X123975904Y-65488409D01*
X123975904Y-65488409D02*
X124023523Y-65440790D01*
X124023523Y-65440790D02*
X124118761Y-65393171D01*
X124118761Y-65393171D02*
X124309237Y-65393171D01*
X124309237Y-65393171D02*
X124404475Y-65440790D01*
X124404475Y-65440790D02*
X124452094Y-65488409D01*
X124452094Y-65488409D02*
X124499713Y-65583647D01*
X132849857Y-73200419D02*
X133183190Y-72724228D01*
X133421285Y-73200419D02*
X133421285Y-72200419D01*
X133421285Y-72200419D02*
X133040333Y-72200419D01*
X133040333Y-72200419D02*
X132945095Y-72248038D01*
X132945095Y-72248038D02*
X132897476Y-72295657D01*
X132897476Y-72295657D02*
X132849857Y-72390895D01*
X132849857Y-72390895D02*
X132849857Y-72533752D01*
X132849857Y-72533752D02*
X132897476Y-72628990D01*
X132897476Y-72628990D02*
X132945095Y-72676609D01*
X132945095Y-72676609D02*
X133040333Y-72724228D01*
X133040333Y-72724228D02*
X133421285Y-72724228D01*
X131897476Y-73200419D02*
X132468904Y-73200419D01*
X132183190Y-73200419D02*
X132183190Y-72200419D01*
X132183190Y-72200419D02*
X132278428Y-72343276D01*
X132278428Y-72343276D02*
X132373666Y-72438514D01*
X132373666Y-72438514D02*
X132468904Y-72486133D01*
X131564142Y-72200419D02*
X130945095Y-72200419D01*
X130945095Y-72200419D02*
X131278428Y-72581371D01*
X131278428Y-72581371D02*
X131135571Y-72581371D01*
X131135571Y-72581371D02*
X131040333Y-72628990D01*
X131040333Y-72628990D02*
X130992714Y-72676609D01*
X130992714Y-72676609D02*
X130945095Y-72771847D01*
X130945095Y-72771847D02*
X130945095Y-73009942D01*
X130945095Y-73009942D02*
X130992714Y-73105180D01*
X130992714Y-73105180D02*
X131040333Y-73152800D01*
X131040333Y-73152800D02*
X131135571Y-73200419D01*
X131135571Y-73200419D02*
X131421285Y-73200419D01*
X131421285Y-73200419D02*
X131516523Y-73152800D01*
X131516523Y-73152800D02*
X131564142Y-73105180D01*
X141549304Y-106033219D02*
X141549304Y-106842742D01*
X141549304Y-106842742D02*
X141501685Y-106937980D01*
X141501685Y-106937980D02*
X141454066Y-106985600D01*
X141454066Y-106985600D02*
X141358828Y-107033219D01*
X141358828Y-107033219D02*
X141168352Y-107033219D01*
X141168352Y-107033219D02*
X141073114Y-106985600D01*
X141073114Y-106985600D02*
X141025495Y-106937980D01*
X141025495Y-106937980D02*
X140977876Y-106842742D01*
X140977876Y-106842742D02*
X140977876Y-106033219D01*
X140596923Y-106033219D02*
X139977876Y-106033219D01*
X139977876Y-106033219D02*
X140311209Y-106414171D01*
X140311209Y-106414171D02*
X140168352Y-106414171D01*
X140168352Y-106414171D02*
X140073114Y-106461790D01*
X140073114Y-106461790D02*
X140025495Y-106509409D01*
X140025495Y-106509409D02*
X139977876Y-106604647D01*
X139977876Y-106604647D02*
X139977876Y-106842742D01*
X139977876Y-106842742D02*
X140025495Y-106937980D01*
X140025495Y-106937980D02*
X140073114Y-106985600D01*
X140073114Y-106985600D02*
X140168352Y-107033219D01*
X140168352Y-107033219D02*
X140454066Y-107033219D01*
X140454066Y-107033219D02*
X140549304Y-106985600D01*
X140549304Y-106985600D02*
X140596923Y-106937980D01*
X145819019Y-73562742D02*
X145342828Y-73229409D01*
X145819019Y-72991314D02*
X144819019Y-72991314D01*
X144819019Y-72991314D02*
X144819019Y-73372266D01*
X144819019Y-73372266D02*
X144866638Y-73467504D01*
X144866638Y-73467504D02*
X144914257Y-73515123D01*
X144914257Y-73515123D02*
X145009495Y-73562742D01*
X145009495Y-73562742D02*
X145152352Y-73562742D01*
X145152352Y-73562742D02*
X145247590Y-73515123D01*
X145247590Y-73515123D02*
X145295209Y-73467504D01*
X145295209Y-73467504D02*
X145342828Y-73372266D01*
X145342828Y-73372266D02*
X145342828Y-72991314D01*
X145819019Y-74515123D02*
X145819019Y-73943695D01*
X145819019Y-74229409D02*
X144819019Y-74229409D01*
X144819019Y-74229409D02*
X144961876Y-74134171D01*
X144961876Y-74134171D02*
X145057114Y-74038933D01*
X145057114Y-74038933D02*
X145104733Y-73943695D01*
X145819019Y-74991314D02*
X145819019Y-75181790D01*
X145819019Y-75181790D02*
X145771400Y-75277028D01*
X145771400Y-75277028D02*
X145723780Y-75324647D01*
X145723780Y-75324647D02*
X145580923Y-75419885D01*
X145580923Y-75419885D02*
X145390447Y-75467504D01*
X145390447Y-75467504D02*
X145009495Y-75467504D01*
X145009495Y-75467504D02*
X144914257Y-75419885D01*
X144914257Y-75419885D02*
X144866638Y-75372266D01*
X144866638Y-75372266D02*
X144819019Y-75277028D01*
X144819019Y-75277028D02*
X144819019Y-75086552D01*
X144819019Y-75086552D02*
X144866638Y-74991314D01*
X144866638Y-74991314D02*
X144914257Y-74943695D01*
X144914257Y-74943695D02*
X145009495Y-74896076D01*
X145009495Y-74896076D02*
X145247590Y-74896076D01*
X145247590Y-74896076D02*
X145342828Y-74943695D01*
X145342828Y-74943695D02*
X145390447Y-74991314D01*
X145390447Y-74991314D02*
X145438066Y-75086552D01*
X145438066Y-75086552D02*
X145438066Y-75277028D01*
X145438066Y-75277028D02*
X145390447Y-75372266D01*
X145390447Y-75372266D02*
X145342828Y-75419885D01*
X145342828Y-75419885D02*
X145247590Y-75467504D01*
X120901619Y-51128705D02*
X119901619Y-51128705D01*
X119901619Y-51128705D02*
X119901619Y-51366800D01*
X119901619Y-51366800D02*
X119949238Y-51509657D01*
X119949238Y-51509657D02*
X120044476Y-51604895D01*
X120044476Y-51604895D02*
X120139714Y-51652514D01*
X120139714Y-51652514D02*
X120330190Y-51700133D01*
X120330190Y-51700133D02*
X120473047Y-51700133D01*
X120473047Y-51700133D02*
X120663523Y-51652514D01*
X120663523Y-51652514D02*
X120758761Y-51604895D01*
X120758761Y-51604895D02*
X120854000Y-51509657D01*
X120854000Y-51509657D02*
X120901619Y-51366800D01*
X120901619Y-51366800D02*
X120901619Y-51128705D01*
X119996857Y-52081086D02*
X119949238Y-52128705D01*
X119949238Y-52128705D02*
X119901619Y-52223943D01*
X119901619Y-52223943D02*
X119901619Y-52462038D01*
X119901619Y-52462038D02*
X119949238Y-52557276D01*
X119949238Y-52557276D02*
X119996857Y-52604895D01*
X119996857Y-52604895D02*
X120092095Y-52652514D01*
X120092095Y-52652514D02*
X120187333Y-52652514D01*
X120187333Y-52652514D02*
X120330190Y-52604895D01*
X120330190Y-52604895D02*
X120901619Y-52033467D01*
X120901619Y-52033467D02*
X120901619Y-52652514D01*
X143707857Y-68958619D02*
X144041190Y-68482428D01*
X144279285Y-68958619D02*
X144279285Y-67958619D01*
X144279285Y-67958619D02*
X143898333Y-67958619D01*
X143898333Y-67958619D02*
X143803095Y-68006238D01*
X143803095Y-68006238D02*
X143755476Y-68053857D01*
X143755476Y-68053857D02*
X143707857Y-68149095D01*
X143707857Y-68149095D02*
X143707857Y-68291952D01*
X143707857Y-68291952D02*
X143755476Y-68387190D01*
X143755476Y-68387190D02*
X143803095Y-68434809D01*
X143803095Y-68434809D02*
X143898333Y-68482428D01*
X143898333Y-68482428D02*
X144279285Y-68482428D01*
X142755476Y-68958619D02*
X143326904Y-68958619D01*
X143041190Y-68958619D02*
X143041190Y-67958619D01*
X143041190Y-67958619D02*
X143136428Y-68101476D01*
X143136428Y-68101476D02*
X143231666Y-68196714D01*
X143231666Y-68196714D02*
X143326904Y-68244333D01*
X141850714Y-67958619D02*
X142326904Y-67958619D01*
X142326904Y-67958619D02*
X142374523Y-68434809D01*
X142374523Y-68434809D02*
X142326904Y-68387190D01*
X142326904Y-68387190D02*
X142231666Y-68339571D01*
X142231666Y-68339571D02*
X141993571Y-68339571D01*
X141993571Y-68339571D02*
X141898333Y-68387190D01*
X141898333Y-68387190D02*
X141850714Y-68434809D01*
X141850714Y-68434809D02*
X141803095Y-68530047D01*
X141803095Y-68530047D02*
X141803095Y-68768142D01*
X141803095Y-68768142D02*
X141850714Y-68863380D01*
X141850714Y-68863380D02*
X141898333Y-68911000D01*
X141898333Y-68911000D02*
X141993571Y-68958619D01*
X141993571Y-68958619D02*
X142231666Y-68958619D01*
X142231666Y-68958619D02*
X142326904Y-68911000D01*
X142326904Y-68911000D02*
X142374523Y-68863380D01*
X149711580Y-82434133D02*
X149759200Y-82386514D01*
X149759200Y-82386514D02*
X149806819Y-82243657D01*
X149806819Y-82243657D02*
X149806819Y-82148419D01*
X149806819Y-82148419D02*
X149759200Y-82005562D01*
X149759200Y-82005562D02*
X149663961Y-81910324D01*
X149663961Y-81910324D02*
X149568723Y-81862705D01*
X149568723Y-81862705D02*
X149378247Y-81815086D01*
X149378247Y-81815086D02*
X149235390Y-81815086D01*
X149235390Y-81815086D02*
X149044914Y-81862705D01*
X149044914Y-81862705D02*
X148949676Y-81910324D01*
X148949676Y-81910324D02*
X148854438Y-82005562D01*
X148854438Y-82005562D02*
X148806819Y-82148419D01*
X148806819Y-82148419D02*
X148806819Y-82243657D01*
X148806819Y-82243657D02*
X148854438Y-82386514D01*
X148854438Y-82386514D02*
X148902057Y-82434133D01*
X148806819Y-83291276D02*
X148806819Y-83100800D01*
X148806819Y-83100800D02*
X148854438Y-83005562D01*
X148854438Y-83005562D02*
X148902057Y-82957943D01*
X148902057Y-82957943D02*
X149044914Y-82862705D01*
X149044914Y-82862705D02*
X149235390Y-82815086D01*
X149235390Y-82815086D02*
X149616342Y-82815086D01*
X149616342Y-82815086D02*
X149711580Y-82862705D01*
X149711580Y-82862705D02*
X149759200Y-82910324D01*
X149759200Y-82910324D02*
X149806819Y-83005562D01*
X149806819Y-83005562D02*
X149806819Y-83196038D01*
X149806819Y-83196038D02*
X149759200Y-83291276D01*
X149759200Y-83291276D02*
X149711580Y-83338895D01*
X149711580Y-83338895D02*
X149616342Y-83386514D01*
X149616342Y-83386514D02*
X149378247Y-83386514D01*
X149378247Y-83386514D02*
X149283009Y-83338895D01*
X149283009Y-83338895D02*
X149235390Y-83291276D01*
X149235390Y-83291276D02*
X149187771Y-83196038D01*
X149187771Y-83196038D02*
X149187771Y-83005562D01*
X149187771Y-83005562D02*
X149235390Y-82910324D01*
X149235390Y-82910324D02*
X149283009Y-82862705D01*
X149283009Y-82862705D02*
X149378247Y-82815086D01*
X125981619Y-75589333D02*
X125505428Y-75256000D01*
X125981619Y-75017905D02*
X124981619Y-75017905D01*
X124981619Y-75017905D02*
X124981619Y-75398857D01*
X124981619Y-75398857D02*
X125029238Y-75494095D01*
X125029238Y-75494095D02*
X125076857Y-75541714D01*
X125076857Y-75541714D02*
X125172095Y-75589333D01*
X125172095Y-75589333D02*
X125314952Y-75589333D01*
X125314952Y-75589333D02*
X125410190Y-75541714D01*
X125410190Y-75541714D02*
X125457809Y-75494095D01*
X125457809Y-75494095D02*
X125505428Y-75398857D01*
X125505428Y-75398857D02*
X125505428Y-75017905D01*
X125981619Y-76065524D02*
X125981619Y-76256000D01*
X125981619Y-76256000D02*
X125934000Y-76351238D01*
X125934000Y-76351238D02*
X125886380Y-76398857D01*
X125886380Y-76398857D02*
X125743523Y-76494095D01*
X125743523Y-76494095D02*
X125553047Y-76541714D01*
X125553047Y-76541714D02*
X125172095Y-76541714D01*
X125172095Y-76541714D02*
X125076857Y-76494095D01*
X125076857Y-76494095D02*
X125029238Y-76446476D01*
X125029238Y-76446476D02*
X124981619Y-76351238D01*
X124981619Y-76351238D02*
X124981619Y-76160762D01*
X124981619Y-76160762D02*
X125029238Y-76065524D01*
X125029238Y-76065524D02*
X125076857Y-76017905D01*
X125076857Y-76017905D02*
X125172095Y-75970286D01*
X125172095Y-75970286D02*
X125410190Y-75970286D01*
X125410190Y-75970286D02*
X125505428Y-76017905D01*
X125505428Y-76017905D02*
X125553047Y-76065524D01*
X125553047Y-76065524D02*
X125600666Y-76160762D01*
X125600666Y-76160762D02*
X125600666Y-76351238D01*
X125600666Y-76351238D02*
X125553047Y-76446476D01*
X125553047Y-76446476D02*
X125505428Y-76494095D01*
X125505428Y-76494095D02*
X125410190Y-76541714D01*
X138367066Y-119580819D02*
X138700399Y-119104628D01*
X138938494Y-119580819D02*
X138938494Y-118580819D01*
X138938494Y-118580819D02*
X138557542Y-118580819D01*
X138557542Y-118580819D02*
X138462304Y-118628438D01*
X138462304Y-118628438D02*
X138414685Y-118676057D01*
X138414685Y-118676057D02*
X138367066Y-118771295D01*
X138367066Y-118771295D02*
X138367066Y-118914152D01*
X138367066Y-118914152D02*
X138414685Y-119009390D01*
X138414685Y-119009390D02*
X138462304Y-119057009D01*
X138462304Y-119057009D02*
X138557542Y-119104628D01*
X138557542Y-119104628D02*
X138938494Y-119104628D01*
X137414685Y-119580819D02*
X137986113Y-119580819D01*
X137700399Y-119580819D02*
X137700399Y-118580819D01*
X137700399Y-118580819D02*
X137795637Y-118723676D01*
X137795637Y-118723676D02*
X137890875Y-118818914D01*
X137890875Y-118818914D02*
X137986113Y-118866533D01*
X140770780Y-111421942D02*
X140818400Y-111374323D01*
X140818400Y-111374323D02*
X140866019Y-111231466D01*
X140866019Y-111231466D02*
X140866019Y-111136228D01*
X140866019Y-111136228D02*
X140818400Y-110993371D01*
X140818400Y-110993371D02*
X140723161Y-110898133D01*
X140723161Y-110898133D02*
X140627923Y-110850514D01*
X140627923Y-110850514D02*
X140437447Y-110802895D01*
X140437447Y-110802895D02*
X140294590Y-110802895D01*
X140294590Y-110802895D02*
X140104114Y-110850514D01*
X140104114Y-110850514D02*
X140008876Y-110898133D01*
X140008876Y-110898133D02*
X139913638Y-110993371D01*
X139913638Y-110993371D02*
X139866019Y-111136228D01*
X139866019Y-111136228D02*
X139866019Y-111231466D01*
X139866019Y-111231466D02*
X139913638Y-111374323D01*
X139913638Y-111374323D02*
X139961257Y-111421942D01*
X140866019Y-112374323D02*
X140866019Y-111802895D01*
X140866019Y-112088609D02*
X139866019Y-112088609D01*
X139866019Y-112088609D02*
X140008876Y-111993371D01*
X140008876Y-111993371D02*
X140104114Y-111898133D01*
X140104114Y-111898133D02*
X140151733Y-111802895D01*
X139866019Y-112993371D02*
X139866019Y-113088609D01*
X139866019Y-113088609D02*
X139913638Y-113183847D01*
X139913638Y-113183847D02*
X139961257Y-113231466D01*
X139961257Y-113231466D02*
X140056495Y-113279085D01*
X140056495Y-113279085D02*
X140246971Y-113326704D01*
X140246971Y-113326704D02*
X140485066Y-113326704D01*
X140485066Y-113326704D02*
X140675542Y-113279085D01*
X140675542Y-113279085D02*
X140770780Y-113231466D01*
X140770780Y-113231466D02*
X140818400Y-113183847D01*
X140818400Y-113183847D02*
X140866019Y-113088609D01*
X140866019Y-113088609D02*
X140866019Y-112993371D01*
X140866019Y-112993371D02*
X140818400Y-112898133D01*
X140818400Y-112898133D02*
X140770780Y-112850514D01*
X140770780Y-112850514D02*
X140675542Y-112802895D01*
X140675542Y-112802895D02*
X140485066Y-112755276D01*
X140485066Y-112755276D02*
X140246971Y-112755276D01*
X140246971Y-112755276D02*
X140056495Y-112802895D01*
X140056495Y-112802895D02*
X139961257Y-112850514D01*
X139961257Y-112850514D02*
X139913638Y-112898133D01*
X139913638Y-112898133D02*
X139866019Y-112993371D01*
X147386219Y-57624742D02*
X146910028Y-57291409D01*
X147386219Y-57053314D02*
X146386219Y-57053314D01*
X146386219Y-57053314D02*
X146386219Y-57434266D01*
X146386219Y-57434266D02*
X146433838Y-57529504D01*
X146433838Y-57529504D02*
X146481457Y-57577123D01*
X146481457Y-57577123D02*
X146576695Y-57624742D01*
X146576695Y-57624742D02*
X146719552Y-57624742D01*
X146719552Y-57624742D02*
X146814790Y-57577123D01*
X146814790Y-57577123D02*
X146862409Y-57529504D01*
X146862409Y-57529504D02*
X146910028Y-57434266D01*
X146910028Y-57434266D02*
X146910028Y-57053314D01*
X147386219Y-58577123D02*
X147386219Y-58005695D01*
X147386219Y-58291409D02*
X146386219Y-58291409D01*
X146386219Y-58291409D02*
X146529076Y-58196171D01*
X146529076Y-58196171D02*
X146624314Y-58100933D01*
X146624314Y-58100933D02*
X146671933Y-58005695D01*
X146719552Y-59434266D02*
X147386219Y-59434266D01*
X146338600Y-59196171D02*
X147052885Y-58958076D01*
X147052885Y-58958076D02*
X147052885Y-59577123D01*
X130763180Y-117384533D02*
X130810800Y-117336914D01*
X130810800Y-117336914D02*
X130858419Y-117194057D01*
X130858419Y-117194057D02*
X130858419Y-117098819D01*
X130858419Y-117098819D02*
X130810800Y-116955962D01*
X130810800Y-116955962D02*
X130715561Y-116860724D01*
X130715561Y-116860724D02*
X130620323Y-116813105D01*
X130620323Y-116813105D02*
X130429847Y-116765486D01*
X130429847Y-116765486D02*
X130286990Y-116765486D01*
X130286990Y-116765486D02*
X130096514Y-116813105D01*
X130096514Y-116813105D02*
X130001276Y-116860724D01*
X130001276Y-116860724D02*
X129906038Y-116955962D01*
X129906038Y-116955962D02*
X129858419Y-117098819D01*
X129858419Y-117098819D02*
X129858419Y-117194057D01*
X129858419Y-117194057D02*
X129906038Y-117336914D01*
X129906038Y-117336914D02*
X129953657Y-117384533D01*
X130858419Y-118336914D02*
X130858419Y-117765486D01*
X130858419Y-118051200D02*
X129858419Y-118051200D01*
X129858419Y-118051200D02*
X130001276Y-117955962D01*
X130001276Y-117955962D02*
X130096514Y-117860724D01*
X130096514Y-117860724D02*
X130144133Y-117765486D01*
X130559980Y-75640133D02*
X130607600Y-75592514D01*
X130607600Y-75592514D02*
X130655219Y-75449657D01*
X130655219Y-75449657D02*
X130655219Y-75354419D01*
X130655219Y-75354419D02*
X130607600Y-75211562D01*
X130607600Y-75211562D02*
X130512361Y-75116324D01*
X130512361Y-75116324D02*
X130417123Y-75068705D01*
X130417123Y-75068705D02*
X130226647Y-75021086D01*
X130226647Y-75021086D02*
X130083790Y-75021086D01*
X130083790Y-75021086D02*
X129893314Y-75068705D01*
X129893314Y-75068705D02*
X129798076Y-75116324D01*
X129798076Y-75116324D02*
X129702838Y-75211562D01*
X129702838Y-75211562D02*
X129655219Y-75354419D01*
X129655219Y-75354419D02*
X129655219Y-75449657D01*
X129655219Y-75449657D02*
X129702838Y-75592514D01*
X129702838Y-75592514D02*
X129750457Y-75640133D01*
X129988552Y-76497276D02*
X130655219Y-76497276D01*
X129607600Y-76259181D02*
X130321885Y-76021086D01*
X130321885Y-76021086D02*
X130321885Y-76640133D01*
X141694819Y-71932895D02*
X142504342Y-71932895D01*
X142504342Y-71932895D02*
X142599580Y-71980514D01*
X142599580Y-71980514D02*
X142647200Y-72028133D01*
X142647200Y-72028133D02*
X142694819Y-72123371D01*
X142694819Y-72123371D02*
X142694819Y-72313847D01*
X142694819Y-72313847D02*
X142647200Y-72409085D01*
X142647200Y-72409085D02*
X142599580Y-72456704D01*
X142599580Y-72456704D02*
X142504342Y-72504323D01*
X142504342Y-72504323D02*
X141694819Y-72504323D01*
X141790057Y-72932895D02*
X141742438Y-72980514D01*
X141742438Y-72980514D02*
X141694819Y-73075752D01*
X141694819Y-73075752D02*
X141694819Y-73313847D01*
X141694819Y-73313847D02*
X141742438Y-73409085D01*
X141742438Y-73409085D02*
X141790057Y-73456704D01*
X141790057Y-73456704D02*
X141885295Y-73504323D01*
X141885295Y-73504323D02*
X141980533Y-73504323D01*
X141980533Y-73504323D02*
X142123390Y-73456704D01*
X142123390Y-73456704D02*
X142694819Y-72885276D01*
X142694819Y-72885276D02*
X142694819Y-73504323D01*
X135618457Y-81791980D02*
X135666076Y-81839600D01*
X135666076Y-81839600D02*
X135808933Y-81887219D01*
X135808933Y-81887219D02*
X135904171Y-81887219D01*
X135904171Y-81887219D02*
X136047028Y-81839600D01*
X136047028Y-81839600D02*
X136142266Y-81744361D01*
X136142266Y-81744361D02*
X136189885Y-81649123D01*
X136189885Y-81649123D02*
X136237504Y-81458647D01*
X136237504Y-81458647D02*
X136237504Y-81315790D01*
X136237504Y-81315790D02*
X136189885Y-81125314D01*
X136189885Y-81125314D02*
X136142266Y-81030076D01*
X136142266Y-81030076D02*
X136047028Y-80934838D01*
X136047028Y-80934838D02*
X135904171Y-80887219D01*
X135904171Y-80887219D02*
X135808933Y-80887219D01*
X135808933Y-80887219D02*
X135666076Y-80934838D01*
X135666076Y-80934838D02*
X135618457Y-80982457D01*
X134666076Y-81887219D02*
X135237504Y-81887219D01*
X134951790Y-81887219D02*
X134951790Y-80887219D01*
X134951790Y-80887219D02*
X135047028Y-81030076D01*
X135047028Y-81030076D02*
X135142266Y-81125314D01*
X135142266Y-81125314D02*
X135237504Y-81172933D01*
X133808933Y-80887219D02*
X133999409Y-80887219D01*
X133999409Y-80887219D02*
X134094647Y-80934838D01*
X134094647Y-80934838D02*
X134142266Y-80982457D01*
X134142266Y-80982457D02*
X134237504Y-81125314D01*
X134237504Y-81125314D02*
X134285123Y-81315790D01*
X134285123Y-81315790D02*
X134285123Y-81696742D01*
X134285123Y-81696742D02*
X134237504Y-81791980D01*
X134237504Y-81791980D02*
X134189885Y-81839600D01*
X134189885Y-81839600D02*
X134094647Y-81887219D01*
X134094647Y-81887219D02*
X133904171Y-81887219D01*
X133904171Y-81887219D02*
X133808933Y-81839600D01*
X133808933Y-81839600D02*
X133761314Y-81791980D01*
X133761314Y-81791980D02*
X133713695Y-81696742D01*
X133713695Y-81696742D02*
X133713695Y-81458647D01*
X133713695Y-81458647D02*
X133761314Y-81363409D01*
X133761314Y-81363409D02*
X133808933Y-81315790D01*
X133808933Y-81315790D02*
X133904171Y-81268171D01*
X133904171Y-81268171D02*
X134094647Y-81268171D01*
X134094647Y-81268171D02*
X134189885Y-81315790D01*
X134189885Y-81315790D02*
X134237504Y-81363409D01*
X134237504Y-81363409D02*
X134285123Y-81458647D01*
X130359580Y-67956133D02*
X130407200Y-67908514D01*
X130407200Y-67908514D02*
X130454819Y-67765657D01*
X130454819Y-67765657D02*
X130454819Y-67670419D01*
X130454819Y-67670419D02*
X130407200Y-67527562D01*
X130407200Y-67527562D02*
X130311961Y-67432324D01*
X130311961Y-67432324D02*
X130216723Y-67384705D01*
X130216723Y-67384705D02*
X130026247Y-67337086D01*
X130026247Y-67337086D02*
X129883390Y-67337086D01*
X129883390Y-67337086D02*
X129692914Y-67384705D01*
X129692914Y-67384705D02*
X129597676Y-67432324D01*
X129597676Y-67432324D02*
X129502438Y-67527562D01*
X129502438Y-67527562D02*
X129454819Y-67670419D01*
X129454819Y-67670419D02*
X129454819Y-67765657D01*
X129454819Y-67765657D02*
X129502438Y-67908514D01*
X129502438Y-67908514D02*
X129550057Y-67956133D01*
X129454819Y-68860895D02*
X129454819Y-68384705D01*
X129454819Y-68384705D02*
X129931009Y-68337086D01*
X129931009Y-68337086D02*
X129883390Y-68384705D01*
X129883390Y-68384705D02*
X129835771Y-68479943D01*
X129835771Y-68479943D02*
X129835771Y-68718038D01*
X129835771Y-68718038D02*
X129883390Y-68813276D01*
X129883390Y-68813276D02*
X129931009Y-68860895D01*
X129931009Y-68860895D02*
X130026247Y-68908514D01*
X130026247Y-68908514D02*
X130264342Y-68908514D01*
X130264342Y-68908514D02*
X130359580Y-68860895D01*
X130359580Y-68860895D02*
X130407200Y-68813276D01*
X130407200Y-68813276D02*
X130454819Y-68718038D01*
X130454819Y-68718038D02*
X130454819Y-68479943D01*
X130454819Y-68479943D02*
X130407200Y-68384705D01*
X130407200Y-68384705D02*
X130359580Y-68337086D01*
X147400180Y-92327133D02*
X147447800Y-92279514D01*
X147447800Y-92279514D02*
X147495419Y-92136657D01*
X147495419Y-92136657D02*
X147495419Y-92041419D01*
X147495419Y-92041419D02*
X147447800Y-91898562D01*
X147447800Y-91898562D02*
X147352561Y-91803324D01*
X147352561Y-91803324D02*
X147257323Y-91755705D01*
X147257323Y-91755705D02*
X147066847Y-91708086D01*
X147066847Y-91708086D02*
X146923990Y-91708086D01*
X146923990Y-91708086D02*
X146733514Y-91755705D01*
X146733514Y-91755705D02*
X146638276Y-91803324D01*
X146638276Y-91803324D02*
X146543038Y-91898562D01*
X146543038Y-91898562D02*
X146495419Y-92041419D01*
X146495419Y-92041419D02*
X146495419Y-92136657D01*
X146495419Y-92136657D02*
X146543038Y-92279514D01*
X146543038Y-92279514D02*
X146590657Y-92327133D01*
X146923990Y-92898562D02*
X146876371Y-92803324D01*
X146876371Y-92803324D02*
X146828752Y-92755705D01*
X146828752Y-92755705D02*
X146733514Y-92708086D01*
X146733514Y-92708086D02*
X146685895Y-92708086D01*
X146685895Y-92708086D02*
X146590657Y-92755705D01*
X146590657Y-92755705D02*
X146543038Y-92803324D01*
X146543038Y-92803324D02*
X146495419Y-92898562D01*
X146495419Y-92898562D02*
X146495419Y-93089038D01*
X146495419Y-93089038D02*
X146543038Y-93184276D01*
X146543038Y-93184276D02*
X146590657Y-93231895D01*
X146590657Y-93231895D02*
X146685895Y-93279514D01*
X146685895Y-93279514D02*
X146733514Y-93279514D01*
X146733514Y-93279514D02*
X146828752Y-93231895D01*
X146828752Y-93231895D02*
X146876371Y-93184276D01*
X146876371Y-93184276D02*
X146923990Y-93089038D01*
X146923990Y-93089038D02*
X146923990Y-92898562D01*
X146923990Y-92898562D02*
X146971609Y-92803324D01*
X146971609Y-92803324D02*
X147019228Y-92755705D01*
X147019228Y-92755705D02*
X147114466Y-92708086D01*
X147114466Y-92708086D02*
X147304942Y-92708086D01*
X147304942Y-92708086D02*
X147400180Y-92755705D01*
X147400180Y-92755705D02*
X147447800Y-92803324D01*
X147447800Y-92803324D02*
X147495419Y-92898562D01*
X147495419Y-92898562D02*
X147495419Y-93089038D01*
X147495419Y-93089038D02*
X147447800Y-93184276D01*
X147447800Y-93184276D02*
X147400180Y-93231895D01*
X147400180Y-93231895D02*
X147304942Y-93279514D01*
X147304942Y-93279514D02*
X147114466Y-93279514D01*
X147114466Y-93279514D02*
X147019228Y-93231895D01*
X147019228Y-93231895D02*
X146971609Y-93184276D01*
X146971609Y-93184276D02*
X146923990Y-93089038D01*
X139916819Y-89408095D02*
X140726342Y-89408095D01*
X140726342Y-89408095D02*
X140821580Y-89455714D01*
X140821580Y-89455714D02*
X140869200Y-89503333D01*
X140869200Y-89503333D02*
X140916819Y-89598571D01*
X140916819Y-89598571D02*
X140916819Y-89789047D01*
X140916819Y-89789047D02*
X140869200Y-89884285D01*
X140869200Y-89884285D02*
X140821580Y-89931904D01*
X140821580Y-89931904D02*
X140726342Y-89979523D01*
X140726342Y-89979523D02*
X139916819Y-89979523D01*
X140250152Y-90884285D02*
X140916819Y-90884285D01*
X139869200Y-90646190D02*
X140583485Y-90408095D01*
X140583485Y-90408095D02*
X140583485Y-91027142D01*
X117035919Y-69316695D02*
X117845442Y-69316695D01*
X117845442Y-69316695D02*
X117940680Y-69364314D01*
X117940680Y-69364314D02*
X117988300Y-69411933D01*
X117988300Y-69411933D02*
X118035919Y-69507171D01*
X118035919Y-69507171D02*
X118035919Y-69697647D01*
X118035919Y-69697647D02*
X117988300Y-69792885D01*
X117988300Y-69792885D02*
X117940680Y-69840504D01*
X117940680Y-69840504D02*
X117845442Y-69888123D01*
X117845442Y-69888123D02*
X117035919Y-69888123D01*
X118035919Y-70888123D02*
X118035919Y-70316695D01*
X118035919Y-70602409D02*
X117035919Y-70602409D01*
X117035919Y-70602409D02*
X117178776Y-70507171D01*
X117178776Y-70507171D02*
X117274014Y-70411933D01*
X117274014Y-70411933D02*
X117321633Y-70316695D01*
X139453857Y-66088419D02*
X139787190Y-65612228D01*
X140025285Y-66088419D02*
X140025285Y-65088419D01*
X140025285Y-65088419D02*
X139644333Y-65088419D01*
X139644333Y-65088419D02*
X139549095Y-65136038D01*
X139549095Y-65136038D02*
X139501476Y-65183657D01*
X139501476Y-65183657D02*
X139453857Y-65278895D01*
X139453857Y-65278895D02*
X139453857Y-65421752D01*
X139453857Y-65421752D02*
X139501476Y-65516990D01*
X139501476Y-65516990D02*
X139549095Y-65564609D01*
X139549095Y-65564609D02*
X139644333Y-65612228D01*
X139644333Y-65612228D02*
X140025285Y-65612228D01*
X138501476Y-66088419D02*
X139072904Y-66088419D01*
X138787190Y-66088419D02*
X138787190Y-65088419D01*
X138787190Y-65088419D02*
X138882428Y-65231276D01*
X138882428Y-65231276D02*
X138977666Y-65326514D01*
X138977666Y-65326514D02*
X139072904Y-65374133D01*
X137644333Y-65088419D02*
X137834809Y-65088419D01*
X137834809Y-65088419D02*
X137930047Y-65136038D01*
X137930047Y-65136038D02*
X137977666Y-65183657D01*
X137977666Y-65183657D02*
X138072904Y-65326514D01*
X138072904Y-65326514D02*
X138120523Y-65516990D01*
X138120523Y-65516990D02*
X138120523Y-65897942D01*
X138120523Y-65897942D02*
X138072904Y-65993180D01*
X138072904Y-65993180D02*
X138025285Y-66040800D01*
X138025285Y-66040800D02*
X137930047Y-66088419D01*
X137930047Y-66088419D02*
X137739571Y-66088419D01*
X137739571Y-66088419D02*
X137644333Y-66040800D01*
X137644333Y-66040800D02*
X137596714Y-65993180D01*
X137596714Y-65993180D02*
X137549095Y-65897942D01*
X137549095Y-65897942D02*
X137549095Y-65659847D01*
X137549095Y-65659847D02*
X137596714Y-65564609D01*
X137596714Y-65564609D02*
X137644333Y-65516990D01*
X137644333Y-65516990D02*
X137739571Y-65469371D01*
X137739571Y-65469371D02*
X137930047Y-65469371D01*
X137930047Y-65469371D02*
X138025285Y-65516990D01*
X138025285Y-65516990D02*
X138072904Y-65564609D01*
X138072904Y-65564609D02*
X138120523Y-65659847D01*
X143486094Y-88237219D02*
X143486094Y-87237219D01*
X143486094Y-87237219D02*
X143247999Y-87237219D01*
X143247999Y-87237219D02*
X143105142Y-87284838D01*
X143105142Y-87284838D02*
X143009904Y-87380076D01*
X143009904Y-87380076D02*
X142962285Y-87475314D01*
X142962285Y-87475314D02*
X142914666Y-87665790D01*
X142914666Y-87665790D02*
X142914666Y-87808647D01*
X142914666Y-87808647D02*
X142962285Y-87999123D01*
X142962285Y-87999123D02*
X143009904Y-88094361D01*
X143009904Y-88094361D02*
X143105142Y-88189600D01*
X143105142Y-88189600D02*
X143247999Y-88237219D01*
X143247999Y-88237219D02*
X143486094Y-88237219D01*
X142057523Y-87570552D02*
X142057523Y-88237219D01*
X142295618Y-87189600D02*
X142533713Y-87903885D01*
X142533713Y-87903885D02*
X141914666Y-87903885D01*
X146606419Y-78471733D02*
X146130228Y-78138400D01*
X146606419Y-77900305D02*
X145606419Y-77900305D01*
X145606419Y-77900305D02*
X145606419Y-78281257D01*
X145606419Y-78281257D02*
X145654038Y-78376495D01*
X145654038Y-78376495D02*
X145701657Y-78424114D01*
X145701657Y-78424114D02*
X145796895Y-78471733D01*
X145796895Y-78471733D02*
X145939752Y-78471733D01*
X145939752Y-78471733D02*
X146034990Y-78424114D01*
X146034990Y-78424114D02*
X146082609Y-78376495D01*
X146082609Y-78376495D02*
X146130228Y-78281257D01*
X146130228Y-78281257D02*
X146130228Y-77900305D01*
X145606419Y-79376495D02*
X145606419Y-78900305D01*
X145606419Y-78900305D02*
X146082609Y-78852686D01*
X146082609Y-78852686D02*
X146034990Y-78900305D01*
X146034990Y-78900305D02*
X145987371Y-78995543D01*
X145987371Y-78995543D02*
X145987371Y-79233638D01*
X145987371Y-79233638D02*
X146034990Y-79328876D01*
X146034990Y-79328876D02*
X146082609Y-79376495D01*
X146082609Y-79376495D02*
X146177847Y-79424114D01*
X146177847Y-79424114D02*
X146415942Y-79424114D01*
X146415942Y-79424114D02*
X146511180Y-79376495D01*
X146511180Y-79376495D02*
X146558800Y-79328876D01*
X146558800Y-79328876D02*
X146606419Y-79233638D01*
X146606419Y-79233638D02*
X146606419Y-78995543D01*
X146606419Y-78995543D02*
X146558800Y-78900305D01*
X146558800Y-78900305D02*
X146511180Y-78852686D01*
X139422094Y-123949619D02*
X139422094Y-122949619D01*
X139422094Y-122949619D02*
X139183999Y-122949619D01*
X139183999Y-122949619D02*
X139041142Y-122997238D01*
X139041142Y-122997238D02*
X138945904Y-123092476D01*
X138945904Y-123092476D02*
X138898285Y-123187714D01*
X138898285Y-123187714D02*
X138850666Y-123378190D01*
X138850666Y-123378190D02*
X138850666Y-123521047D01*
X138850666Y-123521047D02*
X138898285Y-123711523D01*
X138898285Y-123711523D02*
X138945904Y-123806761D01*
X138945904Y-123806761D02*
X139041142Y-123902000D01*
X139041142Y-123902000D02*
X139183999Y-123949619D01*
X139183999Y-123949619D02*
X139422094Y-123949619D01*
X138517332Y-122949619D02*
X137898285Y-122949619D01*
X137898285Y-122949619D02*
X138231618Y-123330571D01*
X138231618Y-123330571D02*
X138088761Y-123330571D01*
X138088761Y-123330571D02*
X137993523Y-123378190D01*
X137993523Y-123378190D02*
X137945904Y-123425809D01*
X137945904Y-123425809D02*
X137898285Y-123521047D01*
X137898285Y-123521047D02*
X137898285Y-123759142D01*
X137898285Y-123759142D02*
X137945904Y-123854380D01*
X137945904Y-123854380D02*
X137993523Y-123902000D01*
X137993523Y-123902000D02*
X138088761Y-123949619D01*
X138088761Y-123949619D02*
X138374475Y-123949619D01*
X138374475Y-123949619D02*
X138469713Y-123902000D01*
X138469713Y-123902000D02*
X138517332Y-123854380D01*
X134481866Y-100556219D02*
X134815199Y-100080028D01*
X135053294Y-100556219D02*
X135053294Y-99556219D01*
X135053294Y-99556219D02*
X134672342Y-99556219D01*
X134672342Y-99556219D02*
X134577104Y-99603838D01*
X134577104Y-99603838D02*
X134529485Y-99651457D01*
X134529485Y-99651457D02*
X134481866Y-99746695D01*
X134481866Y-99746695D02*
X134481866Y-99889552D01*
X134481866Y-99889552D02*
X134529485Y-99984790D01*
X134529485Y-99984790D02*
X134577104Y-100032409D01*
X134577104Y-100032409D02*
X134672342Y-100080028D01*
X134672342Y-100080028D02*
X135053294Y-100080028D01*
X134148532Y-99556219D02*
X133481866Y-99556219D01*
X133481866Y-99556219D02*
X133910437Y-100556219D01*
X135836819Y-67556142D02*
X135360628Y-67222809D01*
X135836819Y-66984714D02*
X134836819Y-66984714D01*
X134836819Y-66984714D02*
X134836819Y-67365666D01*
X134836819Y-67365666D02*
X134884438Y-67460904D01*
X134884438Y-67460904D02*
X134932057Y-67508523D01*
X134932057Y-67508523D02*
X135027295Y-67556142D01*
X135027295Y-67556142D02*
X135170152Y-67556142D01*
X135170152Y-67556142D02*
X135265390Y-67508523D01*
X135265390Y-67508523D02*
X135313009Y-67460904D01*
X135313009Y-67460904D02*
X135360628Y-67365666D01*
X135360628Y-67365666D02*
X135360628Y-66984714D01*
X135836819Y-68508523D02*
X135836819Y-67937095D01*
X135836819Y-68222809D02*
X134836819Y-68222809D01*
X134836819Y-68222809D02*
X134979676Y-68127571D01*
X134979676Y-68127571D02*
X135074914Y-68032333D01*
X135074914Y-68032333D02*
X135122533Y-67937095D01*
X134932057Y-68889476D02*
X134884438Y-68937095D01*
X134884438Y-68937095D02*
X134836819Y-69032333D01*
X134836819Y-69032333D02*
X134836819Y-69270428D01*
X134836819Y-69270428D02*
X134884438Y-69365666D01*
X134884438Y-69365666D02*
X134932057Y-69413285D01*
X134932057Y-69413285D02*
X135027295Y-69460904D01*
X135027295Y-69460904D02*
X135122533Y-69460904D01*
X135122533Y-69460904D02*
X135265390Y-69413285D01*
X135265390Y-69413285D02*
X135836819Y-68841857D01*
X135836819Y-68841857D02*
X135836819Y-69460904D01*
X134341666Y-118387019D02*
X134674999Y-117910828D01*
X134913094Y-118387019D02*
X134913094Y-117387019D01*
X134913094Y-117387019D02*
X134532142Y-117387019D01*
X134532142Y-117387019D02*
X134436904Y-117434638D01*
X134436904Y-117434638D02*
X134389285Y-117482257D01*
X134389285Y-117482257D02*
X134341666Y-117577495D01*
X134341666Y-117577495D02*
X134341666Y-117720352D01*
X134341666Y-117720352D02*
X134389285Y-117815590D01*
X134389285Y-117815590D02*
X134436904Y-117863209D01*
X134436904Y-117863209D02*
X134532142Y-117910828D01*
X134532142Y-117910828D02*
X134913094Y-117910828D01*
X133960713Y-117482257D02*
X133913094Y-117434638D01*
X133913094Y-117434638D02*
X133817856Y-117387019D01*
X133817856Y-117387019D02*
X133579761Y-117387019D01*
X133579761Y-117387019D02*
X133484523Y-117434638D01*
X133484523Y-117434638D02*
X133436904Y-117482257D01*
X133436904Y-117482257D02*
X133389285Y-117577495D01*
X133389285Y-117577495D02*
X133389285Y-117672733D01*
X133389285Y-117672733D02*
X133436904Y-117815590D01*
X133436904Y-117815590D02*
X134008332Y-118387019D01*
X134008332Y-118387019D02*
X133389285Y-118387019D01*
X131220380Y-95743733D02*
X131268000Y-95696114D01*
X131268000Y-95696114D02*
X131315619Y-95553257D01*
X131315619Y-95553257D02*
X131315619Y-95458019D01*
X131315619Y-95458019D02*
X131268000Y-95315162D01*
X131268000Y-95315162D02*
X131172761Y-95219924D01*
X131172761Y-95219924D02*
X131077523Y-95172305D01*
X131077523Y-95172305D02*
X130887047Y-95124686D01*
X130887047Y-95124686D02*
X130744190Y-95124686D01*
X130744190Y-95124686D02*
X130553714Y-95172305D01*
X130553714Y-95172305D02*
X130458476Y-95219924D01*
X130458476Y-95219924D02*
X130363238Y-95315162D01*
X130363238Y-95315162D02*
X130315619Y-95458019D01*
X130315619Y-95458019D02*
X130315619Y-95553257D01*
X130315619Y-95553257D02*
X130363238Y-95696114D01*
X130363238Y-95696114D02*
X130410857Y-95743733D01*
X130315619Y-96077067D02*
X130315619Y-96696114D01*
X130315619Y-96696114D02*
X130696571Y-96362781D01*
X130696571Y-96362781D02*
X130696571Y-96505638D01*
X130696571Y-96505638D02*
X130744190Y-96600876D01*
X130744190Y-96600876D02*
X130791809Y-96648495D01*
X130791809Y-96648495D02*
X130887047Y-96696114D01*
X130887047Y-96696114D02*
X131125142Y-96696114D01*
X131125142Y-96696114D02*
X131220380Y-96648495D01*
X131220380Y-96648495D02*
X131268000Y-96600876D01*
X131268000Y-96600876D02*
X131315619Y-96505638D01*
X131315619Y-96505638D02*
X131315619Y-96219924D01*
X131315619Y-96219924D02*
X131268000Y-96124686D01*
X131268000Y-96124686D02*
X131220380Y-96077067D01*
X135910057Y-63929419D02*
X136243390Y-63453228D01*
X136481485Y-63929419D02*
X136481485Y-62929419D01*
X136481485Y-62929419D02*
X136100533Y-62929419D01*
X136100533Y-62929419D02*
X136005295Y-62977038D01*
X136005295Y-62977038D02*
X135957676Y-63024657D01*
X135957676Y-63024657D02*
X135910057Y-63119895D01*
X135910057Y-63119895D02*
X135910057Y-63262752D01*
X135910057Y-63262752D02*
X135957676Y-63357990D01*
X135957676Y-63357990D02*
X136005295Y-63405609D01*
X136005295Y-63405609D02*
X136100533Y-63453228D01*
X136100533Y-63453228D02*
X136481485Y-63453228D01*
X134957676Y-63929419D02*
X135529104Y-63929419D01*
X135243390Y-63929419D02*
X135243390Y-62929419D01*
X135243390Y-62929419D02*
X135338628Y-63072276D01*
X135338628Y-63072276D02*
X135433866Y-63167514D01*
X135433866Y-63167514D02*
X135529104Y-63215133D01*
X134386247Y-63357990D02*
X134481485Y-63310371D01*
X134481485Y-63310371D02*
X134529104Y-63262752D01*
X134529104Y-63262752D02*
X134576723Y-63167514D01*
X134576723Y-63167514D02*
X134576723Y-63119895D01*
X134576723Y-63119895D02*
X134529104Y-63024657D01*
X134529104Y-63024657D02*
X134481485Y-62977038D01*
X134481485Y-62977038D02*
X134386247Y-62929419D01*
X134386247Y-62929419D02*
X134195771Y-62929419D01*
X134195771Y-62929419D02*
X134100533Y-62977038D01*
X134100533Y-62977038D02*
X134052914Y-63024657D01*
X134052914Y-63024657D02*
X134005295Y-63119895D01*
X134005295Y-63119895D02*
X134005295Y-63167514D01*
X134005295Y-63167514D02*
X134052914Y-63262752D01*
X134052914Y-63262752D02*
X134100533Y-63310371D01*
X134100533Y-63310371D02*
X134195771Y-63357990D01*
X134195771Y-63357990D02*
X134386247Y-63357990D01*
X134386247Y-63357990D02*
X134481485Y-63405609D01*
X134481485Y-63405609D02*
X134529104Y-63453228D01*
X134529104Y-63453228D02*
X134576723Y-63548466D01*
X134576723Y-63548466D02*
X134576723Y-63738942D01*
X134576723Y-63738942D02*
X134529104Y-63834180D01*
X134529104Y-63834180D02*
X134481485Y-63881800D01*
X134481485Y-63881800D02*
X134386247Y-63929419D01*
X134386247Y-63929419D02*
X134195771Y-63929419D01*
X134195771Y-63929419D02*
X134100533Y-63881800D01*
X134100533Y-63881800D02*
X134052914Y-63834180D01*
X134052914Y-63834180D02*
X134005295Y-63738942D01*
X134005295Y-63738942D02*
X134005295Y-63548466D01*
X134005295Y-63548466D02*
X134052914Y-63453228D01*
X134052914Y-63453228D02*
X134100533Y-63405609D01*
X134100533Y-63405609D02*
X134195771Y-63357990D01*
X135817780Y-103573342D02*
X135865400Y-103525723D01*
X135865400Y-103525723D02*
X135913019Y-103382866D01*
X135913019Y-103382866D02*
X135913019Y-103287628D01*
X135913019Y-103287628D02*
X135865400Y-103144771D01*
X135865400Y-103144771D02*
X135770161Y-103049533D01*
X135770161Y-103049533D02*
X135674923Y-103001914D01*
X135674923Y-103001914D02*
X135484447Y-102954295D01*
X135484447Y-102954295D02*
X135341590Y-102954295D01*
X135341590Y-102954295D02*
X135151114Y-103001914D01*
X135151114Y-103001914D02*
X135055876Y-103049533D01*
X135055876Y-103049533D02*
X134960638Y-103144771D01*
X134960638Y-103144771D02*
X134913019Y-103287628D01*
X134913019Y-103287628D02*
X134913019Y-103382866D01*
X134913019Y-103382866D02*
X134960638Y-103525723D01*
X134960638Y-103525723D02*
X135008257Y-103573342D01*
X135913019Y-104525723D02*
X135913019Y-103954295D01*
X135913019Y-104240009D02*
X134913019Y-104240009D01*
X134913019Y-104240009D02*
X135055876Y-104144771D01*
X135055876Y-104144771D02*
X135151114Y-104049533D01*
X135151114Y-104049533D02*
X135198733Y-103954295D01*
X135913019Y-105478104D02*
X135913019Y-104906676D01*
X135913019Y-105192390D02*
X134913019Y-105192390D01*
X134913019Y-105192390D02*
X135055876Y-105097152D01*
X135055876Y-105097152D02*
X135151114Y-105001914D01*
X135151114Y-105001914D02*
X135198733Y-104906676D01*
X118361619Y-74490342D02*
X117885428Y-74157009D01*
X118361619Y-73918914D02*
X117361619Y-73918914D01*
X117361619Y-73918914D02*
X117361619Y-74299866D01*
X117361619Y-74299866D02*
X117409238Y-74395104D01*
X117409238Y-74395104D02*
X117456857Y-74442723D01*
X117456857Y-74442723D02*
X117552095Y-74490342D01*
X117552095Y-74490342D02*
X117694952Y-74490342D01*
X117694952Y-74490342D02*
X117790190Y-74442723D01*
X117790190Y-74442723D02*
X117837809Y-74395104D01*
X117837809Y-74395104D02*
X117885428Y-74299866D01*
X117885428Y-74299866D02*
X117885428Y-73918914D01*
X118361619Y-75442723D02*
X118361619Y-74871295D01*
X118361619Y-75157009D02*
X117361619Y-75157009D01*
X117361619Y-75157009D02*
X117504476Y-75061771D01*
X117504476Y-75061771D02*
X117599714Y-74966533D01*
X117599714Y-74966533D02*
X117647333Y-74871295D01*
X118361619Y-76395104D02*
X118361619Y-75823676D01*
X118361619Y-76109390D02*
X117361619Y-76109390D01*
X117361619Y-76109390D02*
X117504476Y-76014152D01*
X117504476Y-76014152D02*
X117599714Y-75918914D01*
X117599714Y-75918914D02*
X117647333Y-75823676D01*
X133804819Y-75716333D02*
X133328628Y-75383000D01*
X133804819Y-75144905D02*
X132804819Y-75144905D01*
X132804819Y-75144905D02*
X132804819Y-75525857D01*
X132804819Y-75525857D02*
X132852438Y-75621095D01*
X132852438Y-75621095D02*
X132900057Y-75668714D01*
X132900057Y-75668714D02*
X132995295Y-75716333D01*
X132995295Y-75716333D02*
X133138152Y-75716333D01*
X133138152Y-75716333D02*
X133233390Y-75668714D01*
X133233390Y-75668714D02*
X133281009Y-75621095D01*
X133281009Y-75621095D02*
X133328628Y-75525857D01*
X133328628Y-75525857D02*
X133328628Y-75144905D01*
X133233390Y-76287762D02*
X133185771Y-76192524D01*
X133185771Y-76192524D02*
X133138152Y-76144905D01*
X133138152Y-76144905D02*
X133042914Y-76097286D01*
X133042914Y-76097286D02*
X132995295Y-76097286D01*
X132995295Y-76097286D02*
X132900057Y-76144905D01*
X132900057Y-76144905D02*
X132852438Y-76192524D01*
X132852438Y-76192524D02*
X132804819Y-76287762D01*
X132804819Y-76287762D02*
X132804819Y-76478238D01*
X132804819Y-76478238D02*
X132852438Y-76573476D01*
X132852438Y-76573476D02*
X132900057Y-76621095D01*
X132900057Y-76621095D02*
X132995295Y-76668714D01*
X132995295Y-76668714D02*
X133042914Y-76668714D01*
X133042914Y-76668714D02*
X133138152Y-76621095D01*
X133138152Y-76621095D02*
X133185771Y-76573476D01*
X133185771Y-76573476D02*
X133233390Y-76478238D01*
X133233390Y-76478238D02*
X133233390Y-76287762D01*
X133233390Y-76287762D02*
X133281009Y-76192524D01*
X133281009Y-76192524D02*
X133328628Y-76144905D01*
X133328628Y-76144905D02*
X133423866Y-76097286D01*
X133423866Y-76097286D02*
X133614342Y-76097286D01*
X133614342Y-76097286D02*
X133709580Y-76144905D01*
X133709580Y-76144905D02*
X133757200Y-76192524D01*
X133757200Y-76192524D02*
X133804819Y-76287762D01*
X133804819Y-76287762D02*
X133804819Y-76478238D01*
X133804819Y-76478238D02*
X133757200Y-76573476D01*
X133757200Y-76573476D02*
X133709580Y-76621095D01*
X133709580Y-76621095D02*
X133614342Y-76668714D01*
X133614342Y-76668714D02*
X133423866Y-76668714D01*
X133423866Y-76668714D02*
X133328628Y-76621095D01*
X133328628Y-76621095D02*
X133281009Y-76573476D01*
X133281009Y-76573476D02*
X133233390Y-76478238D01*
X137062380Y-76522342D02*
X137110000Y-76474723D01*
X137110000Y-76474723D02*
X137157619Y-76331866D01*
X137157619Y-76331866D02*
X137157619Y-76236628D01*
X137157619Y-76236628D02*
X137110000Y-76093771D01*
X137110000Y-76093771D02*
X137014761Y-75998533D01*
X137014761Y-75998533D02*
X136919523Y-75950914D01*
X136919523Y-75950914D02*
X136729047Y-75903295D01*
X136729047Y-75903295D02*
X136586190Y-75903295D01*
X136586190Y-75903295D02*
X136395714Y-75950914D01*
X136395714Y-75950914D02*
X136300476Y-75998533D01*
X136300476Y-75998533D02*
X136205238Y-76093771D01*
X136205238Y-76093771D02*
X136157619Y-76236628D01*
X136157619Y-76236628D02*
X136157619Y-76331866D01*
X136157619Y-76331866D02*
X136205238Y-76474723D01*
X136205238Y-76474723D02*
X136252857Y-76522342D01*
X137157619Y-77474723D02*
X137157619Y-76903295D01*
X137157619Y-77189009D02*
X136157619Y-77189009D01*
X136157619Y-77189009D02*
X136300476Y-77093771D01*
X136300476Y-77093771D02*
X136395714Y-76998533D01*
X136395714Y-76998533D02*
X136443333Y-76903295D01*
X136252857Y-77855676D02*
X136205238Y-77903295D01*
X136205238Y-77903295D02*
X136157619Y-77998533D01*
X136157619Y-77998533D02*
X136157619Y-78236628D01*
X136157619Y-78236628D02*
X136205238Y-78331866D01*
X136205238Y-78331866D02*
X136252857Y-78379485D01*
X136252857Y-78379485D02*
X136348095Y-78427104D01*
X136348095Y-78427104D02*
X136443333Y-78427104D01*
X136443333Y-78427104D02*
X136586190Y-78379485D01*
X136586190Y-78379485D02*
X137157619Y-77808057D01*
X137157619Y-77808057D02*
X137157619Y-78427104D01*
X128623219Y-71188342D02*
X128147028Y-70855009D01*
X128623219Y-70616914D02*
X127623219Y-70616914D01*
X127623219Y-70616914D02*
X127623219Y-70997866D01*
X127623219Y-70997866D02*
X127670838Y-71093104D01*
X127670838Y-71093104D02*
X127718457Y-71140723D01*
X127718457Y-71140723D02*
X127813695Y-71188342D01*
X127813695Y-71188342D02*
X127956552Y-71188342D01*
X127956552Y-71188342D02*
X128051790Y-71140723D01*
X128051790Y-71140723D02*
X128099409Y-71093104D01*
X128099409Y-71093104D02*
X128147028Y-70997866D01*
X128147028Y-70997866D02*
X128147028Y-70616914D01*
X128623219Y-72140723D02*
X128623219Y-71569295D01*
X128623219Y-71855009D02*
X127623219Y-71855009D01*
X127623219Y-71855009D02*
X127766076Y-71759771D01*
X127766076Y-71759771D02*
X127861314Y-71664533D01*
X127861314Y-71664533D02*
X127908933Y-71569295D01*
X127623219Y-72759771D02*
X127623219Y-72855009D01*
X127623219Y-72855009D02*
X127670838Y-72950247D01*
X127670838Y-72950247D02*
X127718457Y-72997866D01*
X127718457Y-72997866D02*
X127813695Y-73045485D01*
X127813695Y-73045485D02*
X128004171Y-73093104D01*
X128004171Y-73093104D02*
X128242266Y-73093104D01*
X128242266Y-73093104D02*
X128432742Y-73045485D01*
X128432742Y-73045485D02*
X128527980Y-72997866D01*
X128527980Y-72997866D02*
X128575600Y-72950247D01*
X128575600Y-72950247D02*
X128623219Y-72855009D01*
X128623219Y-72855009D02*
X128623219Y-72759771D01*
X128623219Y-72759771D02*
X128575600Y-72664533D01*
X128575600Y-72664533D02*
X128527980Y-72616914D01*
X128527980Y-72616914D02*
X128432742Y-72569295D01*
X128432742Y-72569295D02*
X128242266Y-72521676D01*
X128242266Y-72521676D02*
X128004171Y-72521676D01*
X128004171Y-72521676D02*
X127813695Y-72569295D01*
X127813695Y-72569295D02*
X127718457Y-72616914D01*
X127718457Y-72616914D02*
X127670838Y-72664533D01*
X127670838Y-72664533D02*
X127623219Y-72759771D01*
X135618457Y-84331980D02*
X135666076Y-84379600D01*
X135666076Y-84379600D02*
X135808933Y-84427219D01*
X135808933Y-84427219D02*
X135904171Y-84427219D01*
X135904171Y-84427219D02*
X136047028Y-84379600D01*
X136047028Y-84379600D02*
X136142266Y-84284361D01*
X136142266Y-84284361D02*
X136189885Y-84189123D01*
X136189885Y-84189123D02*
X136237504Y-83998647D01*
X136237504Y-83998647D02*
X136237504Y-83855790D01*
X136237504Y-83855790D02*
X136189885Y-83665314D01*
X136189885Y-83665314D02*
X136142266Y-83570076D01*
X136142266Y-83570076D02*
X136047028Y-83474838D01*
X136047028Y-83474838D02*
X135904171Y-83427219D01*
X135904171Y-83427219D02*
X135808933Y-83427219D01*
X135808933Y-83427219D02*
X135666076Y-83474838D01*
X135666076Y-83474838D02*
X135618457Y-83522457D01*
X134666076Y-84427219D02*
X135237504Y-84427219D01*
X134951790Y-84427219D02*
X134951790Y-83427219D01*
X134951790Y-83427219D02*
X135047028Y-83570076D01*
X135047028Y-83570076D02*
X135142266Y-83665314D01*
X135142266Y-83665314D02*
X135237504Y-83712933D01*
X133808933Y-83760552D02*
X133808933Y-84427219D01*
X134047028Y-83379600D02*
X134285123Y-84093885D01*
X134285123Y-84093885D02*
X133666076Y-84093885D01*
D11*
%TO.C,R4*%
X120099858Y-64679300D02*
X119625342Y-64679300D01*
X120099858Y-65724300D02*
X119625342Y-65724300D01*
%TO.C,R17*%
X131516658Y-49363100D02*
X131042142Y-49363100D01*
X131516658Y-50408100D02*
X131042142Y-50408100D01*
%TO.C,C7*%
X143152400Y-92659780D02*
X143152400Y-92378620D01*
X144172400Y-92659780D02*
X144172400Y-92378620D01*
%TO.C,D1*%
X123673600Y-48250600D02*
X127683600Y-48250600D01*
X123673600Y-50250600D02*
X127683600Y-50250600D01*
X127683600Y-50250600D02*
X127683600Y-48250600D01*
%TO.C,R20*%
X141164542Y-121194300D02*
X141639058Y-121194300D01*
X141164542Y-122239300D02*
X141639058Y-122239300D01*
%TO.C,C13*%
X135720800Y-94725200D02*
X140176363Y-94725200D01*
X135720800Y-96425200D02*
X135720800Y-94725200D01*
X135720800Y-98545200D02*
X135720800Y-100245200D01*
X135720800Y-100245200D02*
X140176363Y-100245200D01*
X140176363Y-94725200D02*
X141240800Y-95789637D01*
X140176363Y-100245200D02*
X141240800Y-99180763D01*
X141240800Y-96425200D02*
X141240800Y-95789637D01*
X141240800Y-98545200D02*
X141240800Y-99180763D01*
X141480800Y-95800200D02*
X142105800Y-95800200D01*
X141793300Y-96112700D02*
X141793300Y-95487700D01*
%TO.C,C15*%
X139078580Y-83894200D02*
X138797420Y-83894200D01*
X139078580Y-84914200D02*
X138797420Y-84914200D01*
%TO.C,R3*%
X132749058Y-114539500D02*
X132274542Y-114539500D01*
X132749058Y-115584500D02*
X132274542Y-115584500D01*
%TO.C,C9*%
X140841000Y-92672780D02*
X140841000Y-92391620D01*
X141861000Y-92672780D02*
X141861000Y-92391620D01*
%TO.C,C2*%
X119825380Y-76883800D02*
X119544220Y-76883800D01*
X119825380Y-77903800D02*
X119544220Y-77903800D01*
%TO.C,R21*%
X119496600Y-48787800D02*
X115656600Y-48787800D01*
X119496600Y-50627800D02*
X115656600Y-50627800D01*
%TO.C,R6*%
X124951258Y-63714100D02*
X124476742Y-63714100D01*
X124951258Y-64759100D02*
X124476742Y-64759100D01*
%TO.C,R13*%
X131969742Y-70978500D02*
X132444258Y-70978500D01*
X131969742Y-72023500D02*
X132444258Y-72023500D01*
%TO.C,U3*%
X139427400Y-101132900D02*
X142147400Y-101132900D01*
X142147400Y-101132900D02*
X142147400Y-102112900D01*
X142147400Y-105852900D02*
X139567400Y-105852900D01*
X142147400Y-105852900D02*
X142147400Y-104872900D01*
X139257400Y-106032900D02*
X138777400Y-106032900D01*
X139017400Y-105702900D01*
X139257400Y-106032900D01*
G36*
X139257400Y-106032900D02*
G01*
X138777400Y-106032900D01*
X139017400Y-105702900D01*
X139257400Y-106032900D01*
G37*
%TO.C,R19*%
X143597100Y-74468258D02*
X143597100Y-73993742D01*
X144642100Y-74468258D02*
X144642100Y-73993742D01*
%TO.C,D2*%
X121260800Y-50562000D02*
X121260800Y-52562000D01*
X125270800Y-50562000D02*
X121260800Y-50562000D01*
X125270800Y-52562000D02*
X121260800Y-52562000D01*
D12*
%TO.C,SW2*%
X123088400Y-53060600D02*
X123088400Y-61442600D01*
X123088400Y-61442600D02*
X132486400Y-61442600D01*
X132486400Y-53060600D02*
X123088400Y-53060600D01*
X132486400Y-61442600D02*
X132486400Y-53060600D01*
D11*
%TO.C,R15*%
X143302258Y-66711300D02*
X142827742Y-66711300D01*
X143302258Y-67756300D02*
X142827742Y-67756300D01*
%TO.C,C6*%
X142559700Y-85878300D02*
X142559700Y-86503300D01*
X142872200Y-86190800D02*
X142247200Y-86190800D01*
X143112200Y-83445800D02*
X143112200Y-82810237D01*
X143112200Y-85565800D02*
X143112200Y-86201363D01*
X144176637Y-81745800D02*
X143112200Y-82810237D01*
X144176637Y-87265800D02*
X143112200Y-86201363D01*
X148632200Y-81745800D02*
X144176637Y-81745800D01*
X148632200Y-83445800D02*
X148632200Y-81745800D01*
X148632200Y-85565800D02*
X148632200Y-87265800D01*
X148632200Y-87265800D02*
X144176637Y-87265800D01*
%TO.C,R9*%
X126223500Y-75993258D02*
X126223500Y-75518742D01*
X127268500Y-75993258D02*
X127268500Y-75518742D01*
%TO.C,R1*%
X138425458Y-117333500D02*
X137950942Y-117333500D01*
X138425458Y-118378500D02*
X137950942Y-118378500D01*
%TO.C,C10*%
X134171400Y-109353237D02*
X135235837Y-108288800D01*
X134171400Y-113808800D02*
X134171400Y-109353237D01*
X135246400Y-108048800D02*
X135246400Y-107423800D01*
X135558900Y-107736300D02*
X134933900Y-107736300D01*
X135871400Y-108288800D02*
X135235837Y-108288800D01*
X135871400Y-113808800D02*
X134171400Y-113808800D01*
X137991400Y-108288800D02*
X138626963Y-108288800D01*
X137991400Y-113808800D02*
X139691400Y-113808800D01*
X139691400Y-109353237D02*
X138626963Y-108288800D01*
X139691400Y-113808800D02*
X139691400Y-109353237D01*
%TO.C,R14*%
X147838900Y-58504858D02*
X147838900Y-58030342D01*
X148883900Y-58504858D02*
X148883900Y-58030342D01*
%TO.C,C1*%
X131163600Y-117283620D02*
X131163600Y-117564780D01*
X132183600Y-117283620D02*
X132183600Y-117564780D01*
%TO.C,C4*%
X128420400Y-75666220D02*
X128420400Y-75947380D01*
X129440400Y-75666220D02*
X129440400Y-75947380D01*
%TO.C,U2*%
X136428800Y-69881200D02*
X136428800Y-71831200D01*
X136428800Y-73781200D02*
X136428800Y-71831200D01*
X141548800Y-69881200D02*
X141548800Y-71831200D01*
X141548800Y-73781200D02*
X141548800Y-71831200D01*
X141783800Y-74771200D02*
X141453800Y-74531200D01*
X141783800Y-74291200D01*
X141783800Y-74771200D01*
G36*
X141783800Y-74771200D02*
G01*
X141453800Y-74531200D01*
X141783800Y-74291200D01*
X141783800Y-74771200D01*
G37*
%TO.C,POT2*%
X134820600Y-55351600D02*
X134820600Y-50631600D01*
X134830600Y-50631600D02*
X136010600Y-50631600D01*
X134830600Y-62221600D02*
X134830600Y-59161600D01*
X134830600Y-62221600D02*
X144570600Y-62221600D01*
X138380600Y-50631600D02*
X138910600Y-50631600D01*
D13*
X139700600Y-59751600D02*
X139700600Y-54751600D01*
D11*
X140530600Y-50631600D02*
X141360600Y-50631600D01*
D13*
X142200600Y-57251600D02*
X137200600Y-57251600D01*
D11*
X143080600Y-50631600D02*
X144570600Y-50631600D01*
X144570600Y-55351600D02*
X144570600Y-50631600D01*
X144570600Y-62221600D02*
X144570600Y-59161600D01*
%TO.C,C16*%
X134758820Y-82040000D02*
X135039980Y-82040000D01*
X134758820Y-83060000D02*
X135039980Y-83060000D01*
%TO.C,C5*%
X130782600Y-67982220D02*
X130782600Y-68263380D01*
X131802600Y-67982220D02*
X131802600Y-68263380D01*
%TO.C,C8*%
X145413000Y-92659780D02*
X145413000Y-92378620D01*
X146433000Y-92659780D02*
X146433000Y-92378620D01*
%TO.C,U4*%
X134560400Y-88245400D02*
X134560400Y-90195400D01*
X134560400Y-92145400D02*
X134560400Y-90195400D01*
X139680400Y-88245400D02*
X139680400Y-90195400D01*
X139680400Y-92145400D02*
X139680400Y-90195400D01*
X139915400Y-93135400D02*
X139585400Y-92895400D01*
X139915400Y-92655400D01*
X139915400Y-93135400D01*
G36*
X139915400Y-93135400D02*
G01*
X139585400Y-92895400D01*
X139915400Y-92655400D01*
X139915400Y-93135400D01*
G37*
%TO.C,U1*%
X118426100Y-68128600D02*
X118426100Y-70078600D01*
X118426100Y-72028600D02*
X118426100Y-70078600D01*
X127296100Y-68128600D02*
X127296100Y-70078600D01*
X127296100Y-72028600D02*
X127296100Y-70078600D01*
X118491100Y-67378600D02*
X118161100Y-67618600D01*
X118161100Y-67138600D01*
X118491100Y-67378600D01*
G36*
X118491100Y-67378600D02*
G01*
X118161100Y-67618600D01*
X118161100Y-67138600D01*
X118491100Y-67378600D01*
G37*
%TO.C,R16*%
X138573742Y-66254100D02*
X139048258Y-66254100D01*
X138573742Y-67299100D02*
X139048258Y-67299100D01*
%TO.C,D4*%
X142230200Y-88431000D02*
X142230200Y-90131000D01*
X144890200Y-88431000D02*
X142230200Y-88431000D01*
X144890200Y-90131000D02*
X142230200Y-90131000D01*
%TO.C,R5*%
X146873700Y-78875658D02*
X146873700Y-78401142D01*
X147918700Y-78875658D02*
X147918700Y-78401142D01*
%TO.C,POT1*%
X118259200Y-85780800D02*
X118259200Y-81060800D01*
X118269200Y-81060800D02*
X119449200Y-81060800D01*
X118269200Y-92650800D02*
X118269200Y-89590800D01*
X118269200Y-92650800D02*
X128009200Y-92650800D01*
X121819200Y-81060800D02*
X122349200Y-81060800D01*
D13*
X123139200Y-90180800D02*
X123139200Y-85180800D01*
D11*
X123969200Y-81060800D02*
X124799200Y-81060800D01*
D13*
X125639200Y-87680800D02*
X120639200Y-87680800D01*
D11*
X126519200Y-81060800D02*
X128009200Y-81060800D01*
X128009200Y-85780800D02*
X128009200Y-81060800D01*
X128009200Y-92650800D02*
X128009200Y-89590800D01*
%TO.C,D3*%
X134680600Y-120328400D02*
X134680600Y-120484400D01*
X134680600Y-122644400D02*
X134680600Y-122800400D01*
X134680600Y-120328884D02*
G75*
G02*
X137912935Y-120485792I1560000J-1235516D01*
G01*
X135199639Y-120484400D02*
G75*
G02*
X137281730Y-120484563I1040961J-1080000D01*
G01*
X137281730Y-122644237D02*
G75*
G02*
X135199639Y-122644400I-1041130J1079837D01*
G01*
X137912935Y-122643008D02*
G75*
G02*
X134680600Y-122799916I-1672335J1078608D01*
G01*
D12*
%TO.C,SW1*%
X115844200Y-53060600D02*
X115844200Y-61442600D01*
X115844200Y-61442600D02*
X121178200Y-61442600D01*
X121178200Y-53060600D02*
X115844200Y-53060600D01*
X121178200Y-61442600D02*
X121178200Y-53060600D01*
D11*
%TO.C,R7*%
X135212858Y-100798100D02*
X134738342Y-100798100D01*
X135212858Y-101843100D02*
X134738342Y-101843100D01*
%TO.C,POT3*%
X101749800Y-55351600D02*
X101749800Y-50631600D01*
X101759800Y-50631600D02*
X102939800Y-50631600D01*
X101759800Y-62221600D02*
X101759800Y-59161600D01*
X101759800Y-62221600D02*
X111499800Y-62221600D01*
X105309800Y-50631600D02*
X105839800Y-50631600D01*
D13*
X106629800Y-59751600D02*
X106629800Y-54751600D01*
D11*
X107459800Y-50631600D02*
X108289800Y-50631600D01*
D13*
X109129800Y-57251600D02*
X104129800Y-57251600D01*
D11*
X110009800Y-50631600D02*
X111499800Y-50631600D01*
X111499800Y-55351600D02*
X111499800Y-50631600D01*
X111499800Y-62221600D02*
X111499800Y-59161600D01*
%TO.C,R12*%
X133614900Y-67961742D02*
X133614900Y-68436258D01*
X134659900Y-67961742D02*
X134659900Y-68436258D01*
%TO.C,R2*%
X134412258Y-116114300D02*
X133937742Y-116114300D01*
X134412258Y-117159300D02*
X133937742Y-117159300D01*
%TO.C,C3*%
X131493800Y-96050980D02*
X131493800Y-95769820D01*
X132513800Y-96050980D02*
X132513800Y-95769820D01*
%TO.C,R18*%
X135504458Y-64120500D02*
X135029942Y-64120500D01*
X135504458Y-65165500D02*
X135029942Y-65165500D01*
%TO.C,C11*%
X136142000Y-104088020D02*
X136142000Y-104369180D01*
X137162000Y-104088020D02*
X137162000Y-104369180D01*
%TO.C,R11*%
X119523742Y-74864700D02*
X119998258Y-74864700D01*
X119523742Y-75909700D02*
X119998258Y-75909700D01*
%TO.C,R8*%
X131582900Y-75645742D02*
X131582900Y-76120258D01*
X132627900Y-75645742D02*
X132627900Y-76120258D01*
%TO.C,C12*%
X137321000Y-76640400D02*
X141776563Y-76640400D01*
X137321000Y-78340400D02*
X137321000Y-76640400D01*
X137321000Y-80460400D02*
X137321000Y-82160400D01*
X137321000Y-82160400D02*
X141776563Y-82160400D01*
X141776563Y-76640400D02*
X142841000Y-77704837D01*
X141776563Y-82160400D02*
X142841000Y-81095963D01*
X142841000Y-78340400D02*
X142841000Y-77704837D01*
X142841000Y-80460400D02*
X142841000Y-81095963D01*
X143081000Y-77715400D02*
X143706000Y-77715400D01*
X143393500Y-78027900D02*
X143393500Y-77402900D01*
%TO.C,R10*%
X128814300Y-72068458D02*
X128814300Y-71593942D01*
X129859300Y-72068458D02*
X129859300Y-71593942D01*
%TO.C,C14*%
X134809620Y-84605400D02*
X135090780Y-84605400D01*
X134809620Y-85625400D02*
X135090780Y-85625400D01*
%TD*%
%LPC*%
D14*
%TO.C,J5*%
X131521200Y-86309200D03*
D15*
X131521200Y-88849200D03*
X131521200Y-91389200D03*
%TD*%
D14*
%TO.C,J4*%
X131089400Y-64566800D03*
D15*
X128549400Y-64566800D03*
%TD*%
D14*
%TO.C,J2*%
X132054600Y-98998800D03*
D15*
X132054600Y-101538800D03*
X132054600Y-104078800D03*
%TD*%
D16*
%TO.C,K2*%
X147675401Y-104125900D03*
X147675401Y-100925899D03*
X147675401Y-98725898D03*
X147675401Y-96525898D03*
X144475401Y-96525898D03*
X144475401Y-98725898D03*
X144475401Y-100925899D03*
X144475401Y-104125900D03*
%TD*%
D14*
%TO.C,J3*%
X131673600Y-120548400D03*
D15*
X131673600Y-123088400D03*
%TD*%
D14*
%TO.C,J7*%
X131775200Y-108021200D03*
D15*
X131775200Y-110561200D03*
%TD*%
D17*
%TO.C,TRIM1*%
X147599400Y-70180200D03*
X147599400Y-72720200D03*
X147599400Y-75260200D03*
%TD*%
D18*
%TO.C,SW3*%
X139242800Y-63677800D03*
X143941800Y-63677800D03*
X148640800Y-63677800D03*
%TD*%
D19*
%TO.C,U5*%
X141411800Y-116042600D03*
D20*
X143951800Y-116042600D03*
X146491800Y-116042600D03*
X149031800Y-116042600D03*
X149031800Y-108422600D03*
X146491800Y-108422600D03*
X143951800Y-108422600D03*
X141411800Y-108422600D03*
%TD*%
D14*
%TO.C,J6*%
X147782200Y-122072400D03*
D15*
X145242200Y-122072400D03*
%TD*%
D14*
%TO.C,J1*%
X148767800Y-88920400D03*
D15*
X148767800Y-91460400D03*
%TD*%
D21*
%TO.C,R4*%
X119037600Y-65201800D03*
X120687600Y-65201800D03*
%TD*%
%TO.C,R17*%
X130454400Y-49885600D03*
X132104400Y-49885600D03*
%TD*%
D22*
%TO.C,C7*%
X143662400Y-91744200D03*
X143662400Y-93294200D03*
%TD*%
D23*
%TO.C,D1*%
X126973600Y-49250600D03*
X123673600Y-49250600D03*
%TD*%
D24*
%TO.C,R20*%
X142226800Y-121716800D03*
X140576800Y-121716800D03*
%TD*%
D25*
%TO.C,C13*%
X140680800Y-97485200D03*
X136280800Y-97485200D03*
%TD*%
D26*
%TO.C,C15*%
X138163000Y-84404200D03*
X139713000Y-84404200D03*
%TD*%
D21*
%TO.C,R3*%
X131686800Y-115062000D03*
X133336800Y-115062000D03*
%TD*%
D22*
%TO.C,C9*%
X141351000Y-91757200D03*
X141351000Y-93307200D03*
%TD*%
D26*
%TO.C,C2*%
X118909800Y-77393800D03*
X120459800Y-77393800D03*
%TD*%
D27*
%TO.C,R21*%
X115036600Y-49707800D03*
D28*
X120116600Y-49707800D03*
%TD*%
D21*
%TO.C,R6*%
X123889000Y-64236600D03*
X125539000Y-64236600D03*
%TD*%
D24*
%TO.C,R13*%
X133032000Y-71501000D03*
X131382000Y-71501000D03*
%TD*%
D29*
%TO.C,U3*%
X138837400Y-104992900D03*
D30*
X138924900Y-103492900D03*
D29*
X138837400Y-101992900D03*
%TD*%
D31*
%TO.C,R19*%
X144119600Y-73406000D03*
X144119600Y-75056000D03*
%TD*%
D32*
%TO.C,D2*%
X121970800Y-51562000D03*
X125270800Y-51562000D03*
%TD*%
D33*
%TO.C,SW2*%
X125247400Y-54711600D03*
X125247400Y-57251600D03*
X125247400Y-59791600D03*
X130327400Y-54711600D03*
X130327400Y-57251600D03*
X130327400Y-59791600D03*
%TD*%
D21*
%TO.C,R15*%
X142240000Y-67233800D03*
X143890000Y-67233800D03*
%TD*%
D34*
%TO.C,C6*%
X143672200Y-84505800D03*
X148072200Y-84505800D03*
%TD*%
D31*
%TO.C,R9*%
X126746000Y-74931000D03*
X126746000Y-76581000D03*
%TD*%
D21*
%TO.C,R1*%
X137363200Y-117856000D03*
X139013200Y-117856000D03*
%TD*%
D35*
%TO.C,C10*%
X136931400Y-108848800D03*
X136931400Y-113248800D03*
%TD*%
D31*
%TO.C,R14*%
X148361400Y-57442600D03*
X148361400Y-59092600D03*
%TD*%
D36*
%TO.C,C1*%
X131673600Y-118199200D03*
X131673600Y-116649200D03*
%TD*%
%TO.C,C4*%
X128930400Y-76581800D03*
X128930400Y-75031800D03*
%TD*%
D37*
%TO.C,U2*%
X140893800Y-74306200D03*
X139623800Y-74306200D03*
X138353800Y-74306200D03*
X137083800Y-74306200D03*
X137083800Y-69356200D03*
X138353800Y-69356200D03*
X139623800Y-69356200D03*
X140893800Y-69356200D03*
%TD*%
D38*
%TO.C,POT2*%
X144500600Y-57251600D03*
X134900600Y-57251600D03*
D39*
X137200600Y-49751600D03*
D40*
X139700600Y-49751600D03*
X142200600Y-49751600D03*
%TD*%
D41*
%TO.C,C16*%
X135674400Y-82550000D03*
X134124400Y-82550000D03*
%TD*%
D36*
%TO.C,C5*%
X131292600Y-68897800D03*
X131292600Y-67347800D03*
%TD*%
D22*
%TO.C,C8*%
X145923000Y-91744200D03*
X145923000Y-93294200D03*
%TD*%
D37*
%TO.C,U4*%
X139025400Y-92670400D03*
X137755400Y-92670400D03*
X136485400Y-92670400D03*
X135215400Y-92670400D03*
X135215400Y-87720400D03*
X136485400Y-87720400D03*
X137755400Y-87720400D03*
X139025400Y-87720400D03*
%TD*%
D42*
%TO.C,U1*%
X119051100Y-67603600D03*
X120321100Y-67603600D03*
X121591100Y-67603600D03*
X122861100Y-67603600D03*
X124131100Y-67603600D03*
X125401100Y-67603600D03*
X126671100Y-67603600D03*
X126671100Y-72553600D03*
X125401100Y-72553600D03*
X124131100Y-72553600D03*
X122861100Y-72553600D03*
X121591100Y-72553600D03*
X120321100Y-72553600D03*
X119051100Y-72553600D03*
%TD*%
D24*
%TO.C,R16*%
X139636000Y-66776600D03*
X137986000Y-66776600D03*
%TD*%
D43*
%TO.C,D4*%
X142790200Y-89281000D03*
X144890200Y-89281000D03*
%TD*%
D31*
%TO.C,R5*%
X147396200Y-77813400D03*
X147396200Y-79463400D03*
%TD*%
D38*
%TO.C,POT1*%
X127939200Y-87680800D03*
X118339200Y-87680800D03*
D39*
X120639200Y-80180800D03*
D40*
X123139200Y-80180800D03*
X125639200Y-80180800D03*
%TD*%
D39*
%TO.C,D3*%
X134970600Y-121564400D03*
D40*
X137510600Y-121564400D03*
%TD*%
D33*
%TO.C,SW1*%
X118511200Y-59791600D03*
X118511200Y-57251600D03*
X118511200Y-54711600D03*
%TD*%
D21*
%TO.C,R7*%
X134150600Y-101320600D03*
X135800600Y-101320600D03*
%TD*%
D38*
%TO.C,POT3*%
X111429800Y-57251600D03*
X101829800Y-57251600D03*
D39*
X104129800Y-49751600D03*
D40*
X106629800Y-49751600D03*
X109129800Y-49751600D03*
%TD*%
D44*
%TO.C,R12*%
X134137400Y-69024000D03*
X134137400Y-67374000D03*
%TD*%
D21*
%TO.C,R2*%
X133350000Y-116636800D03*
X135000000Y-116636800D03*
%TD*%
D22*
%TO.C,C3*%
X132003800Y-95135400D03*
X132003800Y-96685400D03*
%TD*%
D21*
%TO.C,R18*%
X134442200Y-64643000D03*
X136092200Y-64643000D03*
%TD*%
D36*
%TO.C,C11*%
X136652000Y-105003600D03*
X136652000Y-103453600D03*
%TD*%
D24*
%TO.C,R11*%
X120586000Y-75387200D03*
X118936000Y-75387200D03*
%TD*%
D44*
%TO.C,R8*%
X132105400Y-76708000D03*
X132105400Y-75058000D03*
%TD*%
D25*
%TO.C,C12*%
X142281000Y-79400400D03*
X137881000Y-79400400D03*
%TD*%
D31*
%TO.C,R10*%
X129336800Y-71006200D03*
X129336800Y-72656200D03*
%TD*%
D41*
%TO.C,C14*%
X135725200Y-85115400D03*
X134175200Y-85115400D03*
%TD*%
%LPD*%
M02*
