%TF.GenerationSoftware,KiCad,Pcbnew,8.0.6*%
%TF.CreationDate,2024-12-04T19:14:48+00:00*%
%TF.ProjectId,feedbackPedal,66656564-6261-4636-9b50-6564616c2e6b,rev?*%
%TF.SameCoordinates,Original*%
%TF.FileFunction,Soldermask,Bot*%
%TF.FilePolarity,Negative*%
%FSLAX46Y46*%
G04 Gerber Fmt 4.6, Leading zero omitted, Abs format (unit mm)*
G04 Created by KiCad (PCBNEW 8.0.6) date 2024-12-04 19:14:48*
%MOMM*%
%LPD*%
G01*
G04 APERTURE LIST*
G04 Aperture macros list*
%AMRoundRect*
0 Rectangle with rounded corners*
0 $1 Rounding radius*
0 $2 $3 $4 $5 $6 $7 $8 $9 X,Y pos of 4 corners*
0 Add a 4 corners polygon primitive as box body*
4,1,4,$2,$3,$4,$5,$6,$7,$8,$9,$2,$3,0*
0 Add four circle primitives for the rounded corners*
1,1,$1+$1,$2,$3*
1,1,$1+$1,$4,$5*
1,1,$1+$1,$6,$7*
1,1,$1+$1,$8,$9*
0 Add four rect primitives between the rounded corners*
20,1,$1+$1,$2,$3,$4,$5,0*
20,1,$1+$1,$4,$5,$6,$7,0*
20,1,$1+$1,$6,$7,$8,$9,0*
20,1,$1+$1,$8,$9,$2,$3,0*%
%AMFreePoly0*
4,1,9,3.862500,-0.866500,0.737500,-0.866500,0.737500,-0.450000,-0.737500,-0.450000,-0.737500,0.450000,0.737500,0.450000,0.737500,0.866500,3.862500,0.866500,3.862500,-0.866500,3.862500,-0.866500,$1*%
G04 Aperture macros list end*
%ADD10R,1.700000X1.700000*%
%ADD11O,1.700000X1.700000*%
%ADD12C,1.346200*%
%ADD13C,1.440000*%
%ADD14C,2.057400*%
%ADD15R,1.600000X1.600000*%
%ADD16O,1.600000X1.600000*%
%ADD17RoundRect,0.200000X-0.200000X-0.275000X0.200000X-0.275000X0.200000X0.275000X-0.200000X0.275000X0*%
%ADD18RoundRect,0.225000X-0.250000X0.225000X-0.250000X-0.225000X0.250000X-0.225000X0.250000X0.225000X0*%
%ADD19RoundRect,0.225000X0.225000X0.375000X-0.225000X0.375000X-0.225000X-0.375000X0.225000X-0.375000X0*%
%ADD20RoundRect,0.200000X0.200000X0.275000X-0.200000X0.275000X-0.200000X-0.275000X0.200000X-0.275000X0*%
%ADD21RoundRect,0.250000X1.250000X0.550000X-1.250000X0.550000X-1.250000X-0.550000X1.250000X-0.550000X0*%
%ADD22RoundRect,0.225000X-0.225000X-0.250000X0.225000X-0.250000X0.225000X0.250000X-0.225000X0.250000X0*%
%ADD23C,1.400000*%
%ADD24O,1.400000X1.400000*%
%ADD25RoundRect,0.225000X-0.425000X-0.225000X0.425000X-0.225000X0.425000X0.225000X-0.425000X0.225000X0*%
%ADD26FreePoly0,0.000000*%
%ADD27RoundRect,0.200000X-0.275000X0.200000X-0.275000X-0.200000X0.275000X-0.200000X0.275000X0.200000X0*%
%ADD28RoundRect,0.225000X-0.225000X-0.375000X0.225000X-0.375000X0.225000X0.375000X-0.225000X0.375000X0*%
%ADD29C,1.524000*%
%ADD30RoundRect,0.250000X-1.250000X-0.550000X1.250000X-0.550000X1.250000X0.550000X-1.250000X0.550000X0*%
%ADD31RoundRect,0.250000X-0.550000X1.250000X-0.550000X-1.250000X0.550000X-1.250000X0.550000X1.250000X0*%
%ADD32RoundRect,0.225000X0.250000X-0.225000X0.250000X0.225000X-0.250000X0.225000X-0.250000X-0.225000X0*%
%ADD33RoundRect,0.150000X0.150000X-0.825000X0.150000X0.825000X-0.150000X0.825000X-0.150000X-0.825000X0*%
%ADD34O,2.720000X3.240000*%
%ADD35R,1.800000X1.800000*%
%ADD36C,1.800000*%
%ADD37RoundRect,0.225000X0.225000X0.250000X-0.225000X0.250000X-0.225000X-0.250000X0.225000X-0.250000X0*%
%ADD38RoundRect,0.150000X-0.150000X0.825000X-0.150000X-0.825000X0.150000X-0.825000X0.150000X0.825000X0*%
%ADD39RoundRect,0.112500X-0.187500X-0.112500X0.187500X-0.112500X0.187500X0.112500X-0.187500X0.112500X0*%
%ADD40RoundRect,0.200000X0.275000X-0.200000X0.275000X0.200000X-0.275000X0.200000X-0.275000X-0.200000X0*%
G04 APERTURE END LIST*
D10*
%TO.C,J5*%
X131521200Y-86309200D03*
D11*
X131521200Y-88849200D03*
X131521200Y-91389200D03*
%TD*%
D10*
%TO.C,J4*%
X131089400Y-64566800D03*
D11*
X128549400Y-64566800D03*
%TD*%
D10*
%TO.C,J2*%
X132054600Y-98998800D03*
D11*
X132054600Y-101538800D03*
X132054600Y-104078800D03*
%TD*%
D12*
%TO.C,K2*%
X147675401Y-104125900D03*
X147675401Y-100925899D03*
X147675401Y-98725898D03*
X147675401Y-96525898D03*
X144475401Y-96525898D03*
X144475401Y-98725898D03*
X144475401Y-100925899D03*
X144475401Y-104125900D03*
%TD*%
D10*
%TO.C,J3*%
X131673600Y-120548400D03*
D11*
X131673600Y-123088400D03*
%TD*%
D10*
%TO.C,J7*%
X131775200Y-108021200D03*
D11*
X131775200Y-110561200D03*
%TD*%
D13*
%TO.C,TRIM1*%
X147599400Y-70180200D03*
X147599400Y-72720200D03*
X147599400Y-75260200D03*
%TD*%
D14*
%TO.C,SW3*%
X139242800Y-63677800D03*
X143941800Y-63677800D03*
X148640800Y-63677800D03*
%TD*%
D15*
%TO.C,U5*%
X141411800Y-116042600D03*
D16*
X143951800Y-116042600D03*
X146491800Y-116042600D03*
X149031800Y-116042600D03*
X149031800Y-108422600D03*
X146491800Y-108422600D03*
X143951800Y-108422600D03*
X141411800Y-108422600D03*
%TD*%
D10*
%TO.C,J6*%
X147782200Y-122072400D03*
D11*
X145242200Y-122072400D03*
%TD*%
D10*
%TO.C,J1*%
X148767800Y-88920400D03*
D11*
X148767800Y-91460400D03*
%TD*%
D17*
%TO.C,R4*%
X119037600Y-65201800D03*
X120687600Y-65201800D03*
%TD*%
%TO.C,R17*%
X130454400Y-49885600D03*
X132104400Y-49885600D03*
%TD*%
D18*
%TO.C,C7*%
X143662400Y-91744200D03*
X143662400Y-93294200D03*
%TD*%
D19*
%TO.C,D1*%
X126973600Y-49250600D03*
X123673600Y-49250600D03*
%TD*%
D20*
%TO.C,R20*%
X142226800Y-121716800D03*
X140576800Y-121716800D03*
%TD*%
D21*
%TO.C,C13*%
X140680800Y-97485200D03*
X136280800Y-97485200D03*
%TD*%
D22*
%TO.C,C15*%
X138163000Y-84404200D03*
X139713000Y-84404200D03*
%TD*%
D17*
%TO.C,R3*%
X131686800Y-115062000D03*
X133336800Y-115062000D03*
%TD*%
D18*
%TO.C,C9*%
X141351000Y-91757200D03*
X141351000Y-93307200D03*
%TD*%
D22*
%TO.C,C2*%
X118909800Y-77393800D03*
X120459800Y-77393800D03*
%TD*%
D23*
%TO.C,R21*%
X115036600Y-49707800D03*
D24*
X120116600Y-49707800D03*
%TD*%
D17*
%TO.C,R6*%
X123889000Y-64236600D03*
X125539000Y-64236600D03*
%TD*%
D20*
%TO.C,R13*%
X133032000Y-71501000D03*
X131382000Y-71501000D03*
%TD*%
D25*
%TO.C,U3*%
X138837400Y-104992900D03*
D26*
X138924900Y-103492900D03*
D25*
X138837400Y-101992900D03*
%TD*%
D27*
%TO.C,R19*%
X144119600Y-73406000D03*
X144119600Y-75056000D03*
%TD*%
D28*
%TO.C,D2*%
X121970800Y-51562000D03*
X125270800Y-51562000D03*
%TD*%
D29*
%TO.C,SW2*%
X125247400Y-54711600D03*
X125247400Y-57251600D03*
X125247400Y-59791600D03*
X130327400Y-54711600D03*
X130327400Y-57251600D03*
X130327400Y-59791600D03*
%TD*%
D17*
%TO.C,R15*%
X142240000Y-67233800D03*
X143890000Y-67233800D03*
%TD*%
D30*
%TO.C,C6*%
X143672200Y-84505800D03*
X148072200Y-84505800D03*
%TD*%
D27*
%TO.C,R9*%
X126746000Y-74931000D03*
X126746000Y-76581000D03*
%TD*%
D17*
%TO.C,R1*%
X137363200Y-117856000D03*
X139013200Y-117856000D03*
%TD*%
D31*
%TO.C,C10*%
X136931400Y-108848800D03*
X136931400Y-113248800D03*
%TD*%
D27*
%TO.C,R14*%
X148361400Y-57442600D03*
X148361400Y-59092600D03*
%TD*%
D32*
%TO.C,C1*%
X131673600Y-118199200D03*
X131673600Y-116649200D03*
%TD*%
%TO.C,C4*%
X128930400Y-76581800D03*
X128930400Y-75031800D03*
%TD*%
D33*
%TO.C,U2*%
X140893800Y-74306200D03*
X139623800Y-74306200D03*
X138353800Y-74306200D03*
X137083800Y-74306200D03*
X137083800Y-69356200D03*
X138353800Y-69356200D03*
X139623800Y-69356200D03*
X140893800Y-69356200D03*
%TD*%
D34*
%TO.C,POT2*%
X144500600Y-57251600D03*
X134900600Y-57251600D03*
D35*
X137200600Y-49751600D03*
D36*
X139700600Y-49751600D03*
X142200600Y-49751600D03*
%TD*%
D37*
%TO.C,C16*%
X135674400Y-82550000D03*
X134124400Y-82550000D03*
%TD*%
D32*
%TO.C,C5*%
X131292600Y-68897800D03*
X131292600Y-67347800D03*
%TD*%
D18*
%TO.C,C8*%
X145923000Y-91744200D03*
X145923000Y-93294200D03*
%TD*%
D33*
%TO.C,U4*%
X139025400Y-92670400D03*
X137755400Y-92670400D03*
X136485400Y-92670400D03*
X135215400Y-92670400D03*
X135215400Y-87720400D03*
X136485400Y-87720400D03*
X137755400Y-87720400D03*
X139025400Y-87720400D03*
%TD*%
D38*
%TO.C,U1*%
X119051100Y-67603600D03*
X120321100Y-67603600D03*
X121591100Y-67603600D03*
X122861100Y-67603600D03*
X124131100Y-67603600D03*
X125401100Y-67603600D03*
X126671100Y-67603600D03*
X126671100Y-72553600D03*
X125401100Y-72553600D03*
X124131100Y-72553600D03*
X122861100Y-72553600D03*
X121591100Y-72553600D03*
X120321100Y-72553600D03*
X119051100Y-72553600D03*
%TD*%
D20*
%TO.C,R16*%
X139636000Y-66776600D03*
X137986000Y-66776600D03*
%TD*%
D39*
%TO.C,D4*%
X142790200Y-89281000D03*
X144890200Y-89281000D03*
%TD*%
D27*
%TO.C,R5*%
X147396200Y-77813400D03*
X147396200Y-79463400D03*
%TD*%
D34*
%TO.C,POT1*%
X127939200Y-87680800D03*
X118339200Y-87680800D03*
D35*
X120639200Y-80180800D03*
D36*
X123139200Y-80180800D03*
X125639200Y-80180800D03*
%TD*%
D35*
%TO.C,D3*%
X134970600Y-121564400D03*
D36*
X137510600Y-121564400D03*
%TD*%
D29*
%TO.C,SW1*%
X118511200Y-59791600D03*
X118511200Y-57251600D03*
X118511200Y-54711600D03*
%TD*%
D17*
%TO.C,R7*%
X134150600Y-101320600D03*
X135800600Y-101320600D03*
%TD*%
D34*
%TO.C,POT3*%
X111429800Y-57251600D03*
X101829800Y-57251600D03*
D35*
X104129800Y-49751600D03*
D36*
X106629800Y-49751600D03*
X109129800Y-49751600D03*
%TD*%
D40*
%TO.C,R12*%
X134137400Y-69024000D03*
X134137400Y-67374000D03*
%TD*%
D17*
%TO.C,R2*%
X133350000Y-116636800D03*
X135000000Y-116636800D03*
%TD*%
D18*
%TO.C,C3*%
X132003800Y-95135400D03*
X132003800Y-96685400D03*
%TD*%
D17*
%TO.C,R18*%
X134442200Y-64643000D03*
X136092200Y-64643000D03*
%TD*%
D32*
%TO.C,C11*%
X136652000Y-105003600D03*
X136652000Y-103453600D03*
%TD*%
D20*
%TO.C,R11*%
X120586000Y-75387200D03*
X118936000Y-75387200D03*
%TD*%
D40*
%TO.C,R8*%
X132105400Y-76708000D03*
X132105400Y-75058000D03*
%TD*%
D21*
%TO.C,C12*%
X142281000Y-79400400D03*
X137881000Y-79400400D03*
%TD*%
D27*
%TO.C,R10*%
X129336800Y-71006200D03*
X129336800Y-72656200D03*
%TD*%
D37*
%TO.C,C14*%
X135725200Y-85115400D03*
X134175200Y-85115400D03*
%TD*%
M02*
