%TF.GenerationSoftware,KiCad,Pcbnew,8.0.6*%
%TF.CreationDate,2024-12-04T19:14:48+00:00*%
%TF.ProjectId,feedbackPedal,66656564-6261-4636-9b50-6564616c2e6b,rev?*%
%TF.SameCoordinates,Original*%
%TF.FileFunction,Paste,Bot*%
%TF.FilePolarity,Positive*%
%FSLAX46Y46*%
G04 Gerber Fmt 4.6, Leading zero omitted, Abs format (unit mm)*
G04 Created by KiCad (PCBNEW 8.0.6) date 2024-12-04 19:14:48*
%MOMM*%
%LPD*%
G01*
G04 APERTURE LIST*
G04 Aperture macros list*
%AMRoundRect*
0 Rectangle with rounded corners*
0 $1 Rounding radius*
0 $2 $3 $4 $5 $6 $7 $8 $9 X,Y pos of 4 corners*
0 Add a 4 corners polygon primitive as box body*
4,1,4,$2,$3,$4,$5,$6,$7,$8,$9,$2,$3,0*
0 Add four circle primitives for the rounded corners*
1,1,$1+$1,$2,$3*
1,1,$1+$1,$4,$5*
1,1,$1+$1,$6,$7*
1,1,$1+$1,$8,$9*
0 Add four rect primitives between the rounded corners*
20,1,$1+$1,$2,$3,$4,$5,0*
20,1,$1+$1,$4,$5,$6,$7,0*
20,1,$1+$1,$6,$7,$8,$9,0*
20,1,$1+$1,$8,$9,$2,$3,0*%
%AMFreePoly0*
4,1,9,3.862500,-0.866500,0.737500,-0.866500,0.737500,-0.450000,-0.737500,-0.450000,-0.737500,0.450000,0.737500,0.450000,0.737500,0.866500,3.862500,0.866500,3.862500,-0.866500,3.862500,-0.866500,$1*%
G04 Aperture macros list end*
%ADD10RoundRect,0.200000X-0.200000X-0.275000X0.200000X-0.275000X0.200000X0.275000X-0.200000X0.275000X0*%
%ADD11RoundRect,0.225000X-0.250000X0.225000X-0.250000X-0.225000X0.250000X-0.225000X0.250000X0.225000X0*%
%ADD12RoundRect,0.225000X0.225000X0.375000X-0.225000X0.375000X-0.225000X-0.375000X0.225000X-0.375000X0*%
%ADD13RoundRect,0.200000X0.200000X0.275000X-0.200000X0.275000X-0.200000X-0.275000X0.200000X-0.275000X0*%
%ADD14RoundRect,0.250000X1.250000X0.550000X-1.250000X0.550000X-1.250000X-0.550000X1.250000X-0.550000X0*%
%ADD15RoundRect,0.225000X-0.225000X-0.250000X0.225000X-0.250000X0.225000X0.250000X-0.225000X0.250000X0*%
%ADD16RoundRect,0.225000X-0.425000X-0.225000X0.425000X-0.225000X0.425000X0.225000X-0.425000X0.225000X0*%
%ADD17FreePoly0,0.000000*%
%ADD18RoundRect,0.200000X-0.275000X0.200000X-0.275000X-0.200000X0.275000X-0.200000X0.275000X0.200000X0*%
%ADD19RoundRect,0.225000X-0.225000X-0.375000X0.225000X-0.375000X0.225000X0.375000X-0.225000X0.375000X0*%
%ADD20RoundRect,0.250000X-1.250000X-0.550000X1.250000X-0.550000X1.250000X0.550000X-1.250000X0.550000X0*%
%ADD21RoundRect,0.250000X-0.550000X1.250000X-0.550000X-1.250000X0.550000X-1.250000X0.550000X1.250000X0*%
%ADD22RoundRect,0.225000X0.250000X-0.225000X0.250000X0.225000X-0.250000X0.225000X-0.250000X-0.225000X0*%
%ADD23RoundRect,0.150000X0.150000X-0.825000X0.150000X0.825000X-0.150000X0.825000X-0.150000X-0.825000X0*%
%ADD24RoundRect,0.225000X0.225000X0.250000X-0.225000X0.250000X-0.225000X-0.250000X0.225000X-0.250000X0*%
%ADD25RoundRect,0.150000X-0.150000X0.825000X-0.150000X-0.825000X0.150000X-0.825000X0.150000X0.825000X0*%
%ADD26RoundRect,0.112500X-0.187500X-0.112500X0.187500X-0.112500X0.187500X0.112500X-0.187500X0.112500X0*%
%ADD27RoundRect,0.200000X0.275000X-0.200000X0.275000X0.200000X-0.275000X0.200000X-0.275000X-0.200000X0*%
G04 APERTURE END LIST*
D10*
%TO.C,R4*%
X119037600Y-65201800D03*
X120687600Y-65201800D03*
%TD*%
%TO.C,R17*%
X130454400Y-49885600D03*
X132104400Y-49885600D03*
%TD*%
D11*
%TO.C,C7*%
X143662400Y-91744200D03*
X143662400Y-93294200D03*
%TD*%
D12*
%TO.C,D1*%
X126973600Y-49250600D03*
X123673600Y-49250600D03*
%TD*%
D13*
%TO.C,R20*%
X142226800Y-121716800D03*
X140576800Y-121716800D03*
%TD*%
D14*
%TO.C,C13*%
X140680800Y-97485200D03*
X136280800Y-97485200D03*
%TD*%
D15*
%TO.C,C15*%
X138163000Y-84404200D03*
X139713000Y-84404200D03*
%TD*%
D10*
%TO.C,R3*%
X131686800Y-115062000D03*
X133336800Y-115062000D03*
%TD*%
D11*
%TO.C,C9*%
X141351000Y-91757200D03*
X141351000Y-93307200D03*
%TD*%
D15*
%TO.C,C2*%
X118909800Y-77393800D03*
X120459800Y-77393800D03*
%TD*%
D10*
%TO.C,R6*%
X123889000Y-64236600D03*
X125539000Y-64236600D03*
%TD*%
D13*
%TO.C,R13*%
X133032000Y-71501000D03*
X131382000Y-71501000D03*
%TD*%
D16*
%TO.C,U3*%
X138837400Y-104992900D03*
D17*
X138924900Y-103492900D03*
D16*
X138837400Y-101992900D03*
%TD*%
D18*
%TO.C,R19*%
X144119600Y-73406000D03*
X144119600Y-75056000D03*
%TD*%
D19*
%TO.C,D2*%
X121970800Y-51562000D03*
X125270800Y-51562000D03*
%TD*%
D10*
%TO.C,R15*%
X142240000Y-67233800D03*
X143890000Y-67233800D03*
%TD*%
D20*
%TO.C,C6*%
X143672200Y-84505800D03*
X148072200Y-84505800D03*
%TD*%
D18*
%TO.C,R9*%
X126746000Y-74931000D03*
X126746000Y-76581000D03*
%TD*%
D10*
%TO.C,R1*%
X137363200Y-117856000D03*
X139013200Y-117856000D03*
%TD*%
D21*
%TO.C,C10*%
X136931400Y-108848800D03*
X136931400Y-113248800D03*
%TD*%
D18*
%TO.C,R14*%
X148361400Y-57442600D03*
X148361400Y-59092600D03*
%TD*%
D22*
%TO.C,C1*%
X131673600Y-118199200D03*
X131673600Y-116649200D03*
%TD*%
%TO.C,C4*%
X128930400Y-76581800D03*
X128930400Y-75031800D03*
%TD*%
D23*
%TO.C,U2*%
X140893800Y-74306200D03*
X139623800Y-74306200D03*
X138353800Y-74306200D03*
X137083800Y-74306200D03*
X137083800Y-69356200D03*
X138353800Y-69356200D03*
X139623800Y-69356200D03*
X140893800Y-69356200D03*
%TD*%
D24*
%TO.C,C16*%
X135674400Y-82550000D03*
X134124400Y-82550000D03*
%TD*%
D22*
%TO.C,C5*%
X131292600Y-68897800D03*
X131292600Y-67347800D03*
%TD*%
D11*
%TO.C,C8*%
X145923000Y-91744200D03*
X145923000Y-93294200D03*
%TD*%
D23*
%TO.C,U4*%
X139025400Y-92670400D03*
X137755400Y-92670400D03*
X136485400Y-92670400D03*
X135215400Y-92670400D03*
X135215400Y-87720400D03*
X136485400Y-87720400D03*
X137755400Y-87720400D03*
X139025400Y-87720400D03*
%TD*%
D25*
%TO.C,U1*%
X119051100Y-67603600D03*
X120321100Y-67603600D03*
X121591100Y-67603600D03*
X122861100Y-67603600D03*
X124131100Y-67603600D03*
X125401100Y-67603600D03*
X126671100Y-67603600D03*
X126671100Y-72553600D03*
X125401100Y-72553600D03*
X124131100Y-72553600D03*
X122861100Y-72553600D03*
X121591100Y-72553600D03*
X120321100Y-72553600D03*
X119051100Y-72553600D03*
%TD*%
D13*
%TO.C,R16*%
X139636000Y-66776600D03*
X137986000Y-66776600D03*
%TD*%
D26*
%TO.C,D4*%
X142790200Y-89281000D03*
X144890200Y-89281000D03*
%TD*%
D18*
%TO.C,R5*%
X147396200Y-77813400D03*
X147396200Y-79463400D03*
%TD*%
D10*
%TO.C,R7*%
X134150600Y-101320600D03*
X135800600Y-101320600D03*
%TD*%
D27*
%TO.C,R12*%
X134137400Y-69024000D03*
X134137400Y-67374000D03*
%TD*%
D10*
%TO.C,R2*%
X133350000Y-116636800D03*
X135000000Y-116636800D03*
%TD*%
D11*
%TO.C,C3*%
X132003800Y-95135400D03*
X132003800Y-96685400D03*
%TD*%
D10*
%TO.C,R18*%
X134442200Y-64643000D03*
X136092200Y-64643000D03*
%TD*%
D22*
%TO.C,C11*%
X136652000Y-105003600D03*
X136652000Y-103453600D03*
%TD*%
D13*
%TO.C,R11*%
X120586000Y-75387200D03*
X118936000Y-75387200D03*
%TD*%
D27*
%TO.C,R8*%
X132105400Y-76708000D03*
X132105400Y-75058000D03*
%TD*%
D14*
%TO.C,C12*%
X142281000Y-79400400D03*
X137881000Y-79400400D03*
%TD*%
D18*
%TO.C,R10*%
X129336800Y-71006200D03*
X129336800Y-72656200D03*
%TD*%
D24*
%TO.C,C14*%
X135725200Y-85115400D03*
X134175200Y-85115400D03*
%TD*%
M02*
