%TF.GenerationSoftware,KiCad,Pcbnew,8.0.6*%
%TF.CreationDate,2024-12-04T19:16:50+00:00*%
%TF.ProjectId,feedbackPedal,66656564-6261-4636-9b50-6564616c2e6b,rev?*%
%TF.SameCoordinates,Original*%
%TF.FileFunction,Drillmap*%
%TF.FilePolarity,Positive*%
%FSLAX45Y45*%
G04 Gerber Fmt 4.5, Leading zero omitted, Abs format (unit mm)*
G04 Created by KiCad (PCBNEW 8.0.6) date 2024-12-04 19:16:50*
%MOMM*%
%LPD*%
G01*
G04 APERTURE LIST*
%ADD10C,0.050000*%
%ADD11C,0.200000*%
G04 APERTURE END LIST*
D10*
X9916160Y-4734560D02*
X14648180Y-4732020D01*
X14648180Y-4732020D02*
X14648180Y-5303520D01*
X11579860Y-9309100D02*
X11579860Y-6276336D01*
X9916160Y-6276340D02*
X9916160Y-4734560D01*
X12926060Y-9621520D02*
X12920980Y-12527278D01*
X14648180Y-5303520D02*
X14648180Y-5336540D01*
X12920980Y-12527278D02*
X15133320Y-12527280D01*
X14648180Y-5336540D02*
X15138432Y-5336540D01*
X11579860Y-6276336D02*
X9916160Y-6276340D01*
X12926060Y-9621520D02*
X12613640Y-9309100D01*
X15138432Y-5336540D02*
X15133320Y-12527280D01*
X11579860Y-9309100D02*
X12613640Y-9309100D01*
D11*
X10174437Y-12841264D02*
X10174437Y-12641264D01*
X10174437Y-12641264D02*
X10222056Y-12641264D01*
X10222056Y-12641264D02*
X10250627Y-12650788D01*
X10250627Y-12650788D02*
X10269675Y-12669835D01*
X10269675Y-12669835D02*
X10279199Y-12688883D01*
X10279199Y-12688883D02*
X10288723Y-12726978D01*
X10288723Y-12726978D02*
X10288723Y-12755549D01*
X10288723Y-12755549D02*
X10279199Y-12793645D01*
X10279199Y-12793645D02*
X10269675Y-12812692D01*
X10269675Y-12812692D02*
X10250627Y-12831740D01*
X10250627Y-12831740D02*
X10222056Y-12841264D01*
X10222056Y-12841264D02*
X10174437Y-12841264D01*
X10374437Y-12841264D02*
X10374437Y-12707930D01*
X10374437Y-12746026D02*
X10383961Y-12726978D01*
X10383961Y-12726978D02*
X10393484Y-12717454D01*
X10393484Y-12717454D02*
X10412532Y-12707930D01*
X10412532Y-12707930D02*
X10431580Y-12707930D01*
X10498246Y-12841264D02*
X10498246Y-12707930D01*
X10498246Y-12641264D02*
X10488723Y-12650788D01*
X10488723Y-12650788D02*
X10498246Y-12660311D01*
X10498246Y-12660311D02*
X10507770Y-12650788D01*
X10507770Y-12650788D02*
X10498246Y-12641264D01*
X10498246Y-12641264D02*
X10498246Y-12660311D01*
X10622056Y-12841264D02*
X10603008Y-12831740D01*
X10603008Y-12831740D02*
X10593484Y-12812692D01*
X10593484Y-12812692D02*
X10593484Y-12641264D01*
X10726818Y-12841264D02*
X10707770Y-12831740D01*
X10707770Y-12831740D02*
X10698246Y-12812692D01*
X10698246Y-12812692D02*
X10698246Y-12641264D01*
X10955389Y-12841264D02*
X10955389Y-12641264D01*
X10955389Y-12641264D02*
X11022056Y-12784121D01*
X11022056Y-12784121D02*
X11088723Y-12641264D01*
X11088723Y-12641264D02*
X11088723Y-12841264D01*
X11269675Y-12841264D02*
X11269675Y-12736502D01*
X11269675Y-12736502D02*
X11260151Y-12717454D01*
X11260151Y-12717454D02*
X11241103Y-12707930D01*
X11241103Y-12707930D02*
X11203008Y-12707930D01*
X11203008Y-12707930D02*
X11183961Y-12717454D01*
X11269675Y-12831740D02*
X11250627Y-12841264D01*
X11250627Y-12841264D02*
X11203008Y-12841264D01*
X11203008Y-12841264D02*
X11183961Y-12831740D01*
X11183961Y-12831740D02*
X11174437Y-12812692D01*
X11174437Y-12812692D02*
X11174437Y-12793645D01*
X11174437Y-12793645D02*
X11183961Y-12774597D01*
X11183961Y-12774597D02*
X11203008Y-12765073D01*
X11203008Y-12765073D02*
X11250627Y-12765073D01*
X11250627Y-12765073D02*
X11269675Y-12755549D01*
X11364913Y-12707930D02*
X11364913Y-12907930D01*
X11364913Y-12717454D02*
X11383961Y-12707930D01*
X11383961Y-12707930D02*
X11422056Y-12707930D01*
X11422056Y-12707930D02*
X11441103Y-12717454D01*
X11441103Y-12717454D02*
X11450627Y-12726978D01*
X11450627Y-12726978D02*
X11460151Y-12746026D01*
X11460151Y-12746026D02*
X11460151Y-12803168D01*
X11460151Y-12803168D02*
X11450627Y-12822216D01*
X11450627Y-12822216D02*
X11441103Y-12831740D01*
X11441103Y-12831740D02*
X11422056Y-12841264D01*
X11422056Y-12841264D02*
X11383961Y-12841264D01*
X11383961Y-12841264D02*
X11364913Y-12831740D01*
X11545865Y-12822216D02*
X11555389Y-12831740D01*
X11555389Y-12831740D02*
X11545865Y-12841264D01*
X11545865Y-12841264D02*
X11536342Y-12831740D01*
X11536342Y-12831740D02*
X11545865Y-12822216D01*
X11545865Y-12822216D02*
X11545865Y-12841264D01*
X11545865Y-12717454D02*
X11555389Y-12726978D01*
X11555389Y-12726978D02*
X11545865Y-12736502D01*
X11545865Y-12736502D02*
X11536342Y-12726978D01*
X11536342Y-12726978D02*
X11545865Y-12717454D01*
X11545865Y-12717454D02*
X11545865Y-12736502D01*
M02*
