%TF.GenerationSoftware,KiCad,Pcbnew,8.0.6*%
%TF.CreationDate,2024-12-04T19:14:48+00:00*%
%TF.ProjectId,feedbackPedal,66656564-6261-4636-9b50-6564616c2e6b,rev?*%
%TF.SameCoordinates,Original*%
%TF.FileFunction,Soldermask,Top*%
%TF.FilePolarity,Negative*%
%FSLAX46Y46*%
G04 Gerber Fmt 4.6, Leading zero omitted, Abs format (unit mm)*
G04 Created by KiCad (PCBNEW 8.0.6) date 2024-12-04 19:14:48*
%MOMM*%
%LPD*%
G01*
G04 APERTURE LIST*
%ADD10R,1.700000X1.700000*%
%ADD11O,1.700000X1.700000*%
%ADD12C,1.346200*%
%ADD13C,1.440000*%
%ADD14C,2.057400*%
%ADD15R,1.600000X1.600000*%
%ADD16O,1.600000X1.600000*%
%ADD17C,1.400000*%
%ADD18O,1.400000X1.400000*%
%ADD19C,1.524000*%
%ADD20O,2.720000X3.240000*%
%ADD21R,1.800000X1.800000*%
%ADD22C,1.800000*%
G04 APERTURE END LIST*
D10*
%TO.C,J5*%
X131521200Y-86309200D03*
D11*
X131521200Y-88849200D03*
X131521200Y-91389200D03*
%TD*%
D10*
%TO.C,J4*%
X131089400Y-64566800D03*
D11*
X128549400Y-64566800D03*
%TD*%
D10*
%TO.C,J2*%
X132054600Y-98998800D03*
D11*
X132054600Y-101538800D03*
X132054600Y-104078800D03*
%TD*%
D12*
%TO.C,K2*%
X147675401Y-104125900D03*
X147675401Y-100925899D03*
X147675401Y-98725898D03*
X147675401Y-96525898D03*
X144475401Y-96525898D03*
X144475401Y-98725898D03*
X144475401Y-100925899D03*
X144475401Y-104125900D03*
%TD*%
D10*
%TO.C,J3*%
X131673600Y-120548400D03*
D11*
X131673600Y-123088400D03*
%TD*%
D10*
%TO.C,J7*%
X131775200Y-108021200D03*
D11*
X131775200Y-110561200D03*
%TD*%
D13*
%TO.C,TRIM1*%
X147599400Y-70180200D03*
X147599400Y-72720200D03*
X147599400Y-75260200D03*
%TD*%
D14*
%TO.C,SW3*%
X139242800Y-63677800D03*
X143941800Y-63677800D03*
X148640800Y-63677800D03*
%TD*%
D15*
%TO.C,U5*%
X141411800Y-116042600D03*
D16*
X143951800Y-116042600D03*
X146491800Y-116042600D03*
X149031800Y-116042600D03*
X149031800Y-108422600D03*
X146491800Y-108422600D03*
X143951800Y-108422600D03*
X141411800Y-108422600D03*
%TD*%
D10*
%TO.C,J6*%
X147782200Y-122072400D03*
D11*
X145242200Y-122072400D03*
%TD*%
D10*
%TO.C,J1*%
X148767800Y-88920400D03*
D11*
X148767800Y-91460400D03*
%TD*%
D17*
%TO.C,R21*%
X115036600Y-49707800D03*
D18*
X120116600Y-49707800D03*
%TD*%
D19*
%TO.C,SW2*%
X125247400Y-54711600D03*
X125247400Y-57251600D03*
X125247400Y-59791600D03*
X130327400Y-54711600D03*
X130327400Y-57251600D03*
X130327400Y-59791600D03*
%TD*%
D20*
%TO.C,POT2*%
X144500600Y-57251600D03*
X134900600Y-57251600D03*
D21*
X137200600Y-49751600D03*
D22*
X139700600Y-49751600D03*
X142200600Y-49751600D03*
%TD*%
D20*
%TO.C,POT1*%
X127939200Y-87680800D03*
X118339200Y-87680800D03*
D21*
X120639200Y-80180800D03*
D22*
X123139200Y-80180800D03*
X125639200Y-80180800D03*
%TD*%
D21*
%TO.C,D3*%
X134970600Y-121564400D03*
D22*
X137510600Y-121564400D03*
%TD*%
D19*
%TO.C,SW1*%
X118511200Y-59791600D03*
X118511200Y-57251600D03*
X118511200Y-54711600D03*
%TD*%
D20*
%TO.C,POT3*%
X111429800Y-57251600D03*
X101829800Y-57251600D03*
D21*
X104129800Y-49751600D03*
D22*
X106629800Y-49751600D03*
X109129800Y-49751600D03*
%TD*%
M02*
