M48
; DRILL file {KiCad 8.0.6} date 2024-12-04T19:16:48+0000
; FORMAT={-:-/ absolute / metric / decimal}
; #@! TF.CreationDate,2024-12-04T19:16:48+00:00
; #@! TF.GenerationSoftware,Kicad,Pcbnew,8.0.6
; #@! TF.FileFunction,Plated,1,2,PTH
FMAT,2
METRIC
; #@! TA.AperFunction,Plated,PTH,ViaDrill
T1C0.300
; #@! TA.AperFunction,Plated,PTH,ComponentDrill
T2C0.700
; #@! TA.AperFunction,Plated,PTH,ComponentDrill
T3C0.800
; #@! TA.AperFunction,Plated,PTH,ComponentDrill
T4C0.838
; #@! TA.AperFunction,Plated,PTH,ComponentDrill
T5C0.900
; #@! TA.AperFunction,Plated,PTH,ComponentDrill
T6C1.000
; #@! TA.AperFunction,Plated,PTH,ComponentDrill
T7C1.016
; #@! TA.AperFunction,Plated,PTH,ComponentDrill
T8C1.100
; #@! TA.AperFunction,Plated,PTH,ComponentDrill
T9C1.549
%
G90
G05
T1
X121.996Y-65.735
X122.504Y-62.865
X130.0Y-78.5
X134.468Y-74.27
X135.738Y-77.343
X139.979Y-71.095
X141.0Y-86.5
X143.104Y-76.683
X145.669Y-60.681
X149.276Y-78.638
T2
X115.037Y-49.708
X120.117Y-49.708
T3
X141.412Y-108.423
X141.412Y-116.043
X143.952Y-108.423
X143.952Y-116.043
X146.492Y-108.423
X146.492Y-116.043
X147.599Y-70.18
X147.599Y-72.72
X147.599Y-75.26
X149.032Y-108.423
X149.032Y-116.043
T4
X144.475Y-96.526
X144.475Y-98.726
X144.475Y-100.926
X144.475Y-104.126
X147.675Y-96.526
X147.675Y-98.726
X147.675Y-100.926
X147.675Y-104.126
T5
X134.971Y-121.564
X137.511Y-121.564
T6
X104.13Y-49.752
X106.63Y-49.752
X109.13Y-49.752
X120.639Y-80.181
X123.139Y-80.181
X125.639Y-80.181
X128.549Y-64.567
X131.089Y-64.567
X131.521Y-86.309
X131.521Y-88.849
X131.521Y-91.389
X131.674Y-120.548
X131.674Y-123.088
X131.775Y-108.021
X131.775Y-110.561
X132.055Y-98.999
X132.055Y-101.539
X132.055Y-104.079
X137.201Y-49.752
X139.701Y-49.752
X142.201Y-49.752
X145.242Y-122.072
X147.782Y-122.072
X148.768Y-88.92
X148.768Y-91.46
T7
X118.511Y-54.712
X118.511Y-57.252
X118.511Y-59.792
X125.247Y-54.712
X125.247Y-57.252
X125.247Y-59.792
X130.327Y-54.712
X130.327Y-57.252
X130.327Y-59.792
T9
X139.243Y-63.678
X143.942Y-63.678
X148.641Y-63.678
T8
X101.83Y-57.602G85X101.83Y-56.902
G05
X111.43Y-57.602G85X111.43Y-56.902
G05
X118.339Y-88.031G85X118.339Y-87.331
G05
X127.939Y-88.031G85X127.939Y-87.331
G05
X134.901Y-57.602G85X134.901Y-56.902
G05
X144.501Y-57.602G85X144.501Y-56.902
G05
M30
